<svg version="1.2" xmlns="http://www.w3.org/2000/svg" viewBox="0 0 1640 664" width="1640" height="664">
	<title>New Project</title>
	<style>
		.s0 { fill: #4682b4 } 
	</style>
	<path id="mndy" class="s0" aria-label="mndy"  d="m407.1 221.4v-0.1c-1.9-1.8-3.9-3.5-6-5.2-0.4-0.3-43.8-34.6-93.8-17.5-8.5 2.3-17.3 6.6-25.4 12.4-6.3 4.4-11.8 9.5-16.2 14.9-1.6 2.1-4.6 2.2-6.4 0.2-1.5-1.5-3-3.1-4.6-4.8-1.8-1.8-3.8-3.5-6-5.2-0.6-0.5-58.7-46.1-118.4-5-1.4 0.9-3.3-0.1-3.3-1.8v-7.1c0-2.3-1.9-4.2-4.2-4.2h-74.1c-2.3 0-4.2 1.9-4.2 4.2v256.6c0 2.3 1.9 4.2 4.2 4.2h79.1c2.3 0 4.2-1.9 4.2-4.2v-145c0-10.1 0-22.6 4.3-31.7 3.7-8.5 15.6-13.7 30.8-13.7 8.2 0 14.6 1.9 19.6 5.7 3 2.4 5.5 5.6 7.4 9.5 4.1 9.1 4.7 20.4 4.7 30.2l0.2 145c0 2.3 1.9 4.2 4.2 4.2h76.9c2.4 0 4.3-1.9 4.3-4.2v-145c0-10.1 0-22.6 4.3-31.7 3.7-8.5 15.5-13.7 30.8-13.7 8.2 0 14.6 1.9 19.5 5.7 3.1 2.4 5.6 5.6 7.5 9.5 4.1 9.1 4.6 20.4 4.6 30.2v145c0 2.3 1.9 4.2 4.3 4.2h79c2.4 0 4.3-1.9 4.3-4.2v-149.2c0-39.1-4.6-61.1-31.6-88.2zm334.4-23.6h-74c-2.4 0-4.3 1.9-4.3 4.2v8.1c0 1.7-1.7 2.7-3.1 1.8-21.3-11.9-45.3-18.3-69.9-18.3-77.6 0-140.7 62.3-140.7 138.8 0 76.5 63.1 138.8 140.7 138.8 24.6 0 48.6-6.3 69.9-18.3 1.4-0.8 3.1 0.2 3.1 1.8v3.9c0 2.4 1.9 4.3 4.3 4.3h74c2.4 0 4.3-1.9 4.3-4.3v-256.6c0-2.3-1.9-4.2-4.3-4.2zm-138.6 198.3c-35.6 0-64.5-28.6-64.5-63.7 0-35.1 28.9-63.6 64.5-63.6 35.6 0 60.3 28.5 60.3 63.6 0 35.1-24.7 63.7-60.3 63.7zm376.3-174.7v-0.1c-1.8-1.8-3.9-3.5-6-5.2-0.6-0.5-58.7-46.1-118.4-5-1.4 0.9-3.3-0.1-3.3-1.8v-7.1c0-2.3-1.9-4.2-4.2-4.2h-74.1c-2.3 0-4.2 1.9-4.2 4.2v256.6c0 2.3 1.9 4.2 4.2 4.2h79.1c2.3 0 4.2-1.9 4.2-4.2v-145c0-10.1 0-22.6 4.3-31.7 3.7-8.5 15.6-13.7 30.8-13.7 8.2 0 14.6 1.9 19.6 5.7 3 2.4 5.5 5.6 7.4 9.5 4.1 9.1 4.7 20.4 4.7 30.2v145c0 2.3 1.9 4.2 4.2 4.2h79.1c2.3 0 4.2-1.9 4.2-4.2v-149.2c0-39.1-4.6-61.1-31.6-88.2zm334.3-107.1h-74c-2.4 0-4.3 1.9-4.3 4.3v91.5c0 1.7-1.7 2.7-3.1 1.8-21.3-11.9-45.3-18.3-69.9-18.3-77.6 0-140.7 62.3-140.7 138.8 0 76.5 63.1 138.8 140.7 138.8 24.6 0 48.6-6.3 69.9-18.3 1.4-0.8 3.1 0.2 3.1 1.8v3.9c0 2.4 1.9 4.3 4.3 4.3h74c2.4 0 4.3-1.9 4.3-4.3v-340c0-2.4-1.9-4.3-4.3-4.3zm-138.6 281.8c-35.6 0-64.5-28.6-64.5-63.7 0-35.1 28.9-63.6 64.5-63.6 35.6 0 60.3 28.5 60.3 63.6 0 35.1-24.7 63.7-60.3 63.7zm415.4-198.1h-78c-1.8 0-3.4 1.1-4 2.8l-44.5 130.4c-1.3 3.8-6.6 3.9-8 0.1l-48.3-130.6c-0.6-1.6-2.2-2.7-4-2.7h-73.8c-2.9 0-5 2.9-3.9 5.7l88.1 240.9c0.4 0.9 0.4 1.9 0.1 2.8l-32.3 95.6c-0.9 2.7 1.1 5.6 4 5.6h82.3c1.8 0 3.4-1.2 4-2.9l38.9-110.2 83.4-231.9c1-2.7-1.1-5.6-4-5.6z"/>
</svg>