<?xml version="1.0" encoding="UTF-8"?>
<svg xmlns="http://www.w3.org/2000/svg" version="1.2" width="300" height="300" viewBox="0 0 626 626" style="shape-rendering:geometricPrecision; text-rendering:geometricPrecision; image-rendering:optimizeQuality; fill-rule:evenodd; clip-rule:evenodd">
  <style>
    path { fill: #4682b4"; }
  </style>
  <g>
    <path style="opacity:0.978" fill="#4682b4" d="M 346.5,21.5 C 402.39,22.0125 458.39,22.8458 514.5,24C 519.427,25.8752 523.26,29.0418 526,33.5C 540.92,59.0039 555.586,84.6705 570,110.5C 570.69,111.738 571.19,111.738 571.5,110.5C 572.338,110.842 572.672,111.508 572.5,112.5C 572.062,112.435 571.728,112.601 571.5,113C 579.793,127.085 587.96,141.252 596,155.5C 596.69,156.738 597.19,156.738 597.5,155.5C 598.338,155.842 598.672,156.508 598.5,157.5C 598.062,157.435 597.728,157.601 597.5,158C 600.664,163.974 603.998,169.141 607.5,173.5C 608.369,175.984 609.036,178.651 609.5,181.5C 609.457,182.416 609.124,183.083 608.5,183.5C 607.657,185.487 606.99,187.654 606.5,190C 606.57,190.765 606.903,191.265 607.5,191.5C 605.07,196.037 602.403,200.37 599.5,204.5C 596.384,208.024 593.717,212.024 591.5,216.5C 591.624,217.107 591.957,217.44 592.5,217.5C 592.5,218.167 592.167,218.5 591.5,218.5C 588.719,221.35 586.386,224.683 584.5,228.5C 584.624,229.107 584.957,229.44 585.5,229.5C 585.5,230.167 585.167,230.5 584.5,230.5C 582.487,231.475 581.154,233.142 580.5,235.5C 580.624,236.107 580.957,236.44 581.5,236.5C 579.07,241.037 576.403,245.37 573.5,249.5C 571.487,250.475 570.154,252.142 569.5,254.5C 569.624,255.107 569.957,255.44 570.5,255.5C 570.5,256.167 570.167,256.5 569.5,256.5C 567.487,257.475 566.154,259.142 565.5,261.5C 565.624,262.107 565.957,262.44 566.5,262.5C 566.5,263.167 566.167,263.5 565.5,263.5C 562.719,266.35 560.386,269.683 558.5,273.5C 558.624,274.107 558.957,274.44 559.5,274.5C 559.5,275.167 559.167,275.5 558.5,275.5C 556.487,276.475 555.154,278.142 554.5,280.5C 554.624,281.107 554.957,281.44 555.5,281.5C 553.07,286.037 550.403,290.37 547.5,294.5C 545.487,295.475 544.154,297.142 543.5,299.5C 543.624,300.107 543.957,300.44 544.5,300.5C 544.5,301.167 544.167,301.5 543.5,301.5C 541.487,302.475 540.154,304.142 539.5,306.5C 539.624,307.107 539.957,307.44 540.5,307.5C 540.5,308.167 540.167,308.5 539.5,308.5C 536.255,310.096 535.755,312.43 538,315.5C 556.919,347.67 575.586,380.003 594,412.5C 594.69,413.738 595.19,413.738 595.5,412.5C 596.338,412.842 596.672,413.508 596.5,414.5C 596.062,414.435 595.728,414.601 595.5,415C 600.473,422.864 604.806,430.364 608.5,437.5C 609.833,441.167 609.833,444.833 608.5,448.5C 606.608,451.276 604.941,454.276 603.5,457.5C 603.624,458.107 603.957,458.44 604.5,458.5C 602.07,463.037 599.403,467.37 596.5,471.5C 594.487,472.475 593.154,474.142 592.5,476.5C 592.624,477.107 592.957,477.44 593.5,477.5C 593.5,478.167 593.167,478.5 592.5,478.5C 590.487,479.475 589.154,481.142 588.5,483.5C 588.624,484.107 588.957,484.44 589.5,484.5C 589.5,485.167 589.167,485.5 588.5,485.5C 585.719,488.35 583.386,491.683 581.5,495.5C 581.624,496.107 581.957,496.44 582.5,496.5C 582.5,497.167 582.167,497.5 581.5,497.5C 579.487,498.475 578.154,500.142 577.5,502.5C 577.624,503.107 577.957,503.44 578.5,503.5C 576.07,508.037 573.403,512.37 570.5,516.5C 567.384,520.024 564.717,524.024 562.5,528.5C 562.624,529.107 562.957,529.44 563.5,529.5C 561.07,534.037 558.403,538.37 555.5,542.5C 552.384,546.024 549.717,550.024 547.5,554.5C 547.624,555.107 547.957,555.44 548.5,555.5C 546.07,560.037 543.403,564.37 540.5,568.5C 538.487,569.475 537.154,571.142 536.5,573.5C 536.624,574.107 536.957,574.44 537.5,574.5C 537.5,575.167 537.167,575.5 536.5,575.5C 534.487,576.475 533.154,578.142 532.5,580.5C 532.624,581.107 532.957,581.44 533.5,581.5C 533.5,582.167 533.167,582.5 532.5,582.5C 529.798,585.518 527.298,588.851 525,592.5C 524.308,593.437 524.475,594.103 525.5,594.5C 522.56,597.977 518.893,600.477 514.5,602C 456.665,602.832 398.999,602.665 341.5,601.5C 341.938,601.565 342.272,601.399 342.5,601C 339.751,599.877 337.251,598.377 335,596.5C 334.601,596.728 334.435,597.062 334.5,597.5C 332.973,597.573 331.973,596.906 331.5,595.5C 332.525,595.103 332.692,594.437 332,593.5C 327.33,586.831 323.163,579.831 319.5,572.5C 319.043,571.702 318.376,571.369 317.5,571.5C 316.833,571.5 316.5,571.167 316.5,570.5C 317.465,569.279 317.298,567.946 316,566.5C 297.807,535.437 279.64,504.437 261.5,473.5C 238.176,472.167 214.51,471.5 190.5,471.5C 166.664,471.5 142.998,471.833 119.5,472.5C 118.508,472.672 117.842,472.338 117.5,471.5C 117.487,470.534 116.487,469.868 114.5,469.5C 113.893,469.624 113.56,469.957 113.5,470.5C 112.508,470.672 111.842,470.338 111.5,469.5C 109.579,467.052 107.079,464.385 104,461.5C 99.2997,453.628 94.7997,445.628 90.5,437.5C 90.0431,436.702 89.3764,436.369 88.5,436.5C 87.8333,436.5 87.5,436.167 87.5,435.5C 88.4646,434.279 88.298,432.946 87,431.5C 79.3003,418.629 71.8003,405.629 64.5,392.5C 64.0431,391.702 63.3764,391.369 62.5,391.5C 61.8333,391.5 61.5,391.167 61.5,390.5C 62.4646,389.279 62.298,387.946 61,386.5C 53.3003,373.629 45.8003,360.629 38.5,347.5C 38.0431,346.702 37.3764,346.369 36.5,346.5C 35.8333,346.5 35.5,346.167 35.5,345.5C 36.0431,345.44 36.3764,345.107 36.5,344.5C 31.7467,336.662 27.2467,328.662 23,320.5C 22.0344,316.06 21.2011,311.727 20.5,307.5C 21.0749,304.088 22.4082,301.088 24.5,298.5C 24.81,299.738 25.31,299.738 26,298.5C 27.4545,295.088 29.2879,291.921 31.5,289C 31.2716,288.601 30.9382,288.435 30.5,288.5C 30.3284,287.508 30.6618,286.842 31.5,286.5C 31.81,287.738 32.31,287.738 33,286.5C 34.7869,282.423 36.9536,278.59 39.5,275C 39.2716,274.601 38.9382,274.435 38.5,274.5C 39.5839,271.996 40.9172,269.663 42.5,267.5C 42.81,268.738 43.31,268.738 44,267.5C 44.7065,265.919 45.5399,264.419 46.5,263C 46.2716,262.601 45.9382,262.435 45.5,262.5C 45.3284,261.508 45.6618,260.842 46.5,260.5C 46.81,261.738 47.31,261.738 48,260.5C 48.7065,258.919 49.5399,257.419 50.5,256C 50.2716,255.601 49.9382,255.435 49.5,255.5C 49.3284,254.508 49.6618,253.842 50.5,253.5C 50.81,254.738 51.31,254.738 52,253.5C 53.4545,250.088 55.2879,246.921 57.5,244C 57.2716,243.601 56.9382,243.435 56.5,243.5C 56.3284,242.508 56.6618,241.842 57.5,241.5C 57.81,242.738 58.31,242.738 59,241.5C 60.7869,237.423 62.9536,233.59 65.5,230C 65.2716,229.601 64.9382,229.435 64.5,229.5C 65.5839,226.996 66.9172,224.663 68.5,222.5C 68.81,223.738 69.31,223.738 70,222.5C 70.7065,220.919 71.5399,219.419 72.5,218C 72.2716,217.601 71.9382,217.435 71.5,217.5C 71.3284,216.508 71.6618,215.842 72.5,215.5C 72.81,216.738 73.31,216.738 74,215.5C 74.7065,213.919 75.5399,212.419 76.5,211C 76.2716,210.601 75.9382,210.435 75.5,210.5C 75.3284,209.508 75.6618,208.842 76.5,208.5C 76.81,209.738 77.31,209.738 78,208.5C 79.4545,205.088 81.2879,201.921 83.5,199C 83.2716,198.601 82.9382,198.435 82.5,198.5C 82.3284,197.508 82.6618,196.842 83.5,196.5C 83.81,197.738 84.31,197.738 85,196.5C 86.7869,192.423 88.9536,188.59 91.5,185C 91.2716,184.601 90.9382,184.435 90.5,184.5C 91.5839,181.996 92.9172,179.663 94.5,177.5C 94.81,178.738 95.31,178.738 96,177.5C 99,172.167 102,166.833 105,161.5C 108.741,158.141 112.241,155.474 115.5,153.5C 115.842,152.662 116.508,152.328 117.5,152.5C 164.998,153.665 212.665,153.832 260.5,153C 262.5,149.667 264.5,146.333 266.5,143C 266.272,142.601 265.938,142.435 265.5,142.5C 266.584,139.996 267.917,137.663 269.5,135.5C 269.81,136.738 270.31,136.738 271,135.5C 271.707,133.919 272.54,132.419 273.5,131C 273.272,130.601 272.938,130.435 272.5,130.5C 272.328,129.508 272.662,128.842 273.5,128.5C 273.81,129.738 274.31,129.738 275,128.5C 276.787,124.423 278.954,120.59 281.5,117C 281.272,116.601 280.938,116.435 280.5,116.5C 281.584,113.996 282.917,111.663 284.5,109.5C 284.81,110.738 285.31,110.738 286,109.5C 286.707,107.919 287.54,106.419 288.5,105C 288.272,104.601 287.938,104.435 287.5,104.5C 287.328,103.508 287.662,102.842 288.5,102.5C 288.81,103.738 289.31,103.738 290,102.5C 290.707,100.919 291.54,99.4194 292.5,98C 292.272,97.6012 291.938,97.4346 291.5,97.5C 291.328,96.5084 291.662,95.8417 292.5,95.5C 292.81,96.7383 293.31,96.7383 294,95.5C 294.707,93.9194 295.54,92.4194 296.5,91C 296.272,90.6012 295.938,90.4346 295.5,90.5C 296.584,87.9959 297.917,85.6626 299.5,83.5C 299.81,84.7383 300.31,84.7383 301,83.5C 301.707,81.9194 302.54,80.4194 303.5,79C 303.272,78.6012 302.938,78.4346 302.5,78.5C 302.328,77.5084 302.662,76.8417 303.5,76.5C 303.81,77.7383 304.31,77.7383 305,76.5C 305.707,74.9194 306.54,73.4194 307.5,72C 307.272,71.6012 306.938,71.4346 306.5,71.5C 306.328,70.5084 306.662,69.8417 307.5,69.5C 307.81,70.7383 308.31,70.7383 309,69.5C 309.707,67.9194 310.54,66.4194 311.5,65C 311.272,64.6012 310.938,64.4346 310.5,64.5C 311.584,61.9959 312.917,59.6626 314.5,57.5C 314.81,58.7383 315.31,58.7383 316,57.5C 317.787,53.4234 319.954,49.59 322.5,46C 322.272,45.6012 321.938,45.4346 321.5,45.5C 321.328,44.5084 321.662,43.8417 322.5,43.5C 322.81,44.7383 323.31,44.7383 324,43.5C 327.622,34.4541 333.122,27.7874 340.5,23.5C 342.214,22.2616 344.214,21.595 346.5,21.5 Z M 508.5,38.5 C 511.355,40.5058 513.521,43.1725 515,46.5C 530.512,73.5274 546.012,100.527 561.5,127.5C 561.5,128.167 561.833,128.5 562.5,128.5C 570.833,143.167 579.167,157.833 587.5,172.5C 587.5,173.167 587.833,173.5 588.5,173.5C 589.956,176.247 591.289,179.08 592.5,182C 591.956,183.585 591.289,185.085 590.5,186.5C 588.917,188.663 587.584,190.996 586.5,193.5C 583.677,197.136 581.344,201.136 579.5,205.5C 578.662,205.842 578.328,206.508 578.5,207.5C 576.012,210.466 574.012,213.799 572.5,217.5C 571.662,217.842 571.328,218.508 571.5,219.5C 568.677,223.136 566.344,227.136 564.5,231.5C 562.917,233.663 561.584,235.996 560.5,238.5C 557.677,242.136 555.344,246.136 553.5,250.5C 552.662,250.842 552.328,251.508 552.5,252.5C 550.012,255.466 548.012,258.799 546.5,262.5C 545.662,262.842 545.328,263.508 545.5,264.5C 544.263,265.965 543.263,267.632 542.5,269.5C 541.662,269.842 541.328,270.508 541.5,271.5C 540.263,272.965 539.263,274.632 538.5,276.5C 536.917,278.663 535.584,280.996 534.5,283.5C 531.677,287.136 529.344,291.136 527.5,295.5C 526.662,295.842 526.328,296.508 526.5,297.5C 524.012,300.466 522.012,303.799 520.5,307.5C 519.662,307.842 519.328,308.508 519.5,309.5C 518.387,310.946 518.22,312.613 519,314.5C 541.178,352.861 563.345,391.194 585.5,429.5C 585.5,430.167 585.833,430.5 586.5,430.5C 588.645,434.623 590.645,438.789 592.5,443C 590.071,448.27 587.404,453.437 584.5,458.5C 583.662,458.842 583.328,459.508 583.5,460.5C 580.677,464.136 578.344,468.136 576.5,472.5C 575.662,472.842 575.328,473.508 575.5,474.5C 573.012,477.466 571.012,480.799 569.5,484.5C 568.662,484.842 568.328,485.508 568.5,486.5C 565.677,490.136 563.344,494.136 561.5,498.5C 559.917,500.663 558.584,502.996 557.5,505.5C 556.263,506.965 555.263,508.632 554.5,510.5C 553.662,510.842 553.328,511.508 553.5,512.5C 552.263,513.965 551.263,515.632 550.5,517.5C 549.662,517.842 549.328,518.508 549.5,519.5C 548.263,520.965 547.263,522.632 546.5,524.5C 544.917,526.663 543.584,528.996 542.5,531.5C 539.677,535.136 537.344,539.136 535.5,543.5C 534.662,543.842 534.328,544.508 534.5,545.5C 532.012,548.466 530.012,551.799 528.5,555.5C 527.662,555.842 527.328,556.508 527.5,557.5C 524.677,561.136 522.344,565.136 520.5,569.5C 519.662,569.842 519.328,570.508 519.5,571.5C 517.012,574.466 515.012,577.799 513.5,581.5C 512.354,583.475 510.687,584.975 508.5,586C 454.459,586.825 400.459,586.658 346.5,585.5C 345.542,585.047 344.708,584.381 344,583.5C 338.726,573.939 333.226,564.606 327.5,555.5C 327.672,554.508 327.338,553.842 326.5,553.5C 311.197,526.219 295.53,499.219 279.5,472.5C 279.672,471.508 279.338,470.842 278.5,470.5C 276.062,465.557 273.396,460.723 270.5,456C 220.5,455.667 170.5,455.333 120.5,455C 119.473,454.487 118.473,453.987 117.5,453.5C 111.558,442.237 105.225,431.237 98.5,420.5C 98.6716,419.508 98.3382,418.842 97.5,418.5C 89.5303,403.885 81.197,389.552 72.5,375.5C 72.6716,374.508 72.3382,373.842 71.5,373.5C 63.5303,358.885 55.197,344.552 46.5,330.5C 46.6716,329.508 46.3382,328.842 45.5,328.5C 43.2297,323.725 40.7297,319.058 38,314.5C 37.3427,310.808 38.1761,307.475 40.5,304.5C 41.8202,302.537 43.1535,300.537 44.5,298.5C 45.5,296.5 46.5,294.5 47.5,292.5C 48.1667,292.5 48.5,292.167 48.5,291.5C 49.5,289.5 50.5,287.5 51.5,285.5C 54.4032,281.37 57.0699,277.037 59.5,272.5C 60.5,270.5 61.5,268.5 62.5,266.5C 63.1667,266.5 63.5,266.167 63.5,265.5C 64.5,263.5 65.5,261.5 66.5,259.5C 67.8202,257.537 69.1535,255.537 70.5,253.5C 71.5,251.5 72.5,249.5 73.5,247.5C 74.1667,247.5 74.5,247.167 74.5,246.5C 75.5,244.5 76.5,242.5 77.5,240.5C 80.4032,236.37 83.0699,232.037 85.5,227.5C 86.5,225.5 87.5,223.5 88.5,221.5C 89.1667,221.5 89.5,221.167 89.5,220.5C 91.754,216.993 93.754,213.327 95.5,209.5C 96.1667,209.5 96.5,209.167 96.5,208.5C 99.0877,204.326 101.421,199.993 103.5,195.5C 104.82,193.537 106.154,191.537 107.5,189.5C 108.5,187.5 109.5,185.5 110.5,183.5C 111.167,183.5 111.5,183.167 111.5,182.5C 112.5,180.5 113.5,178.5 114.5,176.5C 115.921,173.242 118.254,170.742 121.5,169C 171.167,168.667 220.833,168.333 270.5,168C 272.052,165.057 273.719,162.223 275.5,159.5C 276.5,157.5 277.5,155.5 278.5,153.5C 281.403,149.37 284.07,145.037 286.5,140.5C 289.088,136.326 291.421,131.993 293.5,127.5C 296.403,123.37 299.07,119.037 301.5,114.5C 304.088,110.326 306.421,105.993 308.5,101.5C 311.403,97.3699 314.07,93.0366 316.5,88.5C 317.5,86.5 318.5,84.5 319.5,82.5C 320.167,82.5 320.5,82.1667 320.5,81.5C 321.5,79.5 322.5,77.5 323.5,75.5C 326.403,71.3699 329.07,67.0366 331.5,62.5C 332.5,60.5 333.5,58.5 334.5,56.5C 335.167,56.5 335.5,56.1667 335.5,55.5C 337.754,51.9934 339.754,48.3267 341.5,44.5C 342.401,43.7095 343.068,42.7095 343.5,41.5C 344.058,40.2101 345.058,39.3768 346.5,39C 400.499,38.5 454.499,38.3333 508.5,38.5 Z"/>
  </g>
  <g>
    <path style="opacity:0.11" fill="#4682b4" d="M 340.5,23.5 C 333.122,27.7874 327.622,34.4541 324,43.5C 323.31,44.7383 322.81,44.7383 322.5,43.5C 325.47,36.3994 329.803,30.2327 335.5,25C 337.025,23.9914 338.692,23.4914 340.5,23.5 Z"/>
  </g>
  <g>
    <path style="opacity:0.342" fill="#4682b4" d="M 509.5,38.5 C 509.167,38.5 508.833,38.5 508.5,38.5C 454.499,38.3333 400.499,38.5 346.5,39C 345.058,39.3768 344.058,40.2101 343.5,41.5C 342.35,39.7333 343.017,38.5666 345.5,38C 400.335,37.1682 455.002,37.3349 509.5,38.5 Z"/>
  </g>
  <g>
    <path style="opacity:0.137" fill="#4682b4" d="M 321.5,45.5 C 321.938,45.4346 322.272,45.6012 322.5,46C 319.954,49.59 317.787,53.4234 316,57.5C 315.31,58.7383 314.81,58.7383 314.5,57.5C 316.344,53.1362 318.677,49.1362 321.5,45.5 Z"/>
  </g>
  <g>
    <path style="opacity:0.251" fill="#4682b4" d="M 341.5,44.5 C 339.754,48.3267 337.754,51.9934 335.5,55.5C 334.535,54.2789 334.702,52.9456 336,51.5C 337.391,48.6639 339.224,46.3306 341.5,44.5 Z"/>
  </g>
  <g>
    <path style="opacity:0.141" fill="#4682b4" d="M 346.5,21.5 C 402.892,21.0123 459.226,21.5123 515.5,23C 520.427,24.8752 524.26,28.0418 527,32.5C 542.098,58.3646 556.931,84.3646 571.5,110.5C 571.19,111.738 570.69,111.738 570,110.5C 555.586,84.6705 540.92,59.0039 526,33.5C 523.26,29.0418 519.427,25.8752 514.5,24C 458.39,22.8458 402.39,22.0125 346.5,21.5 Z"/>
  </g>
  <g>
    <path style="opacity:0.161" fill="#4682b4" d="M 494.5,57.5 C 448.668,58.3327 402.668,58.8327 356.5,59C 354.288,61.9212 352.455,65.0879 351,68.5C 350.31,69.7383 349.81,69.7383 349.5,68.5C 351.109,64.7832 353.109,61.2832 355.5,58C 401.832,57.5 448.165,57.3333 494.5,57.5 Z"/>
  </g>
  <g>
    <path style="opacity:0.406" fill="#4682b4" d="M 334.5,56.5 C 333.5,58.5 332.5,60.5 331.5,62.5C 330.957,62.44 330.624,62.1067 330.5,61.5C 331.154,59.1419 332.487,57.4752 334.5,56.5 Z"/>
  </g>
  <g>
    <path style="opacity:0.993" fill="#4682b4" d="M 494.5,57.5 C 495.833,58.5 495.833,59.5 494.5,60.5C 492.142,62.168 490.476,64.5013 489.5,67.5C 489.624,68.1067 489.957,68.44 490.5,68.5C 490.5,69.1667 490.167,69.5 489.5,69.5C 487.487,70.4752 486.154,72.1419 485.5,74.5C 485.624,75.1067 485.957,75.44 486.5,75.5C 480.404,86.6986 474.071,97.6986 467.5,108.5C 463.832,112.548 460.832,117.215 458.5,122.5C 458.624,123.107 458.957,123.44 459.5,123.5C 459.5,124.167 459.167,124.5 458.5,124.5C 456.487,125.475 455.154,127.142 454.5,129.5C 454.624,130.107 454.957,130.44 455.5,130.5C 447.485,144.535 439.485,158.535 431.5,172.5C 384.48,174.148 337.48,175.148 290.5,175.5C 288.448,174.947 288.115,173.947 289.5,172.5C 289.81,173.738 290.31,173.738 291,172.5C 291.707,170.919 292.54,169.419 293.5,168C 293.272,167.601 292.938,167.435 292.5,167.5C 293.584,164.996 294.917,162.663 296.5,160.5C 296.81,161.738 297.31,161.738 298,160.5C 298.707,158.919 299.54,157.419 300.5,156C 300.272,155.601 299.938,155.435 299.5,155.5C 299.328,154.508 299.662,153.842 300.5,153.5C 300.81,154.738 301.31,154.738 302,153.5C 302.707,151.919 303.54,150.419 304.5,149C 304.272,148.601 303.938,148.435 303.5,148.5C 303.328,147.508 303.662,146.842 304.5,146.5C 304.81,147.738 305.31,147.738 306,146.5C 306.707,144.919 307.54,143.419 308.5,142C 308.272,141.601 307.938,141.435 307.5,141.5C 308.584,138.996 309.917,136.663 311.5,134.5C 311.81,135.738 312.31,135.738 313,134.5C 313.707,132.919 314.54,131.419 315.5,130C 315.272,129.601 314.938,129.435 314.5,129.5C 314.328,128.508 314.662,127.842 315.5,127.5C 315.81,128.738 316.31,128.738 317,127.5C 317.707,125.919 318.54,124.419 319.5,123C 319.272,122.601 318.938,122.435 318.5,122.5C 318.328,121.508 318.662,120.842 319.5,120.5C 319.81,121.738 320.31,121.738 321,120.5C 322.455,117.088 324.288,113.921 326.5,111C 326.272,110.601 325.938,110.435 325.5,110.5C 325.328,109.508 325.662,108.842 326.5,108.5C 326.81,109.738 327.31,109.738 328,108.5C 329.787,104.423 331.954,100.59 334.5,97C 334.272,96.6012 333.938,96.4346 333.5,96.5C 333.328,95.5084 333.662,94.8417 334.5,94.5C 334.81,95.7383 335.31,95.7383 336,94.5C 337.455,91.0879 339.288,87.9212 341.5,85C 341.272,84.6012 340.938,84.4346 340.5,84.5C 340.328,83.5084 340.662,82.8417 341.5,82.5C 341.81,83.7383 342.31,83.7383 343,82.5C 344.787,78.4234 346.954,74.59 349.5,71C 349.272,70.6012 348.938,70.4346 348.5,70.5C 348.328,69.5084 348.662,68.8417 349.5,68.5C 349.81,69.7383 350.31,69.7383 351,68.5C 352.455,65.0879 354.288,61.9212 356.5,59C 402.668,58.8327 448.668,58.3327 494.5,57.5 Z"/>
  </g>
  <g>
    <path style="opacity:0.994" fill="#4682b4" d="M 504.5,66.5 C 504.062,66.4346 503.728,66.6012 503.5,67C 521.793,98.4183 539.96,129.918 558,161.5C 558.69,162.738 559.19,162.738 559.5,161.5C 560.338,161.842 560.672,162.508 560.5,163.5C 560.062,163.435 559.728,163.601 559.5,164C 563.094,169.855 566.427,175.855 569.5,182C 568.385,184.616 567.051,187.116 565.5,189.5C 565.624,190.107 565.957,190.44 566.5,190.5C 566.5,191.167 566.167,191.5 565.5,191.5C 563.487,192.475 562.154,194.142 561.5,196.5C 561.624,197.107 561.957,197.44 562.5,197.5C 562.5,198.167 562.167,198.5 561.5,198.5C 559.487,199.475 558.154,201.142 557.5,203.5C 557.624,204.107 557.957,204.44 558.5,204.5C 558.5,205.167 558.167,205.5 557.5,205.5C 554.719,208.35 552.386,211.683 550.5,215.5C 550.624,216.107 550.957,216.44 551.5,216.5C 551.5,217.167 551.167,217.5 550.5,217.5C 548.487,218.475 547.154,220.142 546.5,222.5C 546.624,223.107 546.957,223.44 547.5,223.5C 547.5,224.167 547.167,224.5 546.5,224.5C 544.487,225.475 543.154,227.142 542.5,229.5C 542.624,230.107 542.957,230.44 543.5,230.5C 542.154,232.537 540.82,234.537 539.5,236.5C 537.487,237.475 536.154,239.142 535.5,241.5C 535.624,242.107 535.957,242.44 536.5,242.5C 536.5,243.167 536.167,243.5 535.5,243.5C 533.487,244.475 532.154,246.142 531.5,248.5C 531.624,249.107 531.957,249.44 532.5,249.5C 532.5,250.167 532.167,250.5 531.5,250.5C 529.487,251.475 528.154,253.142 527.5,255.5C 527.624,256.107 527.957,256.44 528.5,256.5C 527.154,258.537 525.82,260.537 524.5,262.5C 522.487,263.475 521.154,265.142 520.5,267.5C 520.624,268.107 520.957,268.44 521.5,268.5C 521.5,269.167 521.167,269.5 520.5,269.5C 518.487,270.475 517.154,272.142 516.5,274.5C 516.624,275.107 516.957,275.44 517.5,275.5C 517.5,276.167 517.167,276.5 516.5,276.5C 514.487,277.475 513.154,279.142 512.5,281.5C 512.624,282.107 512.957,282.44 513.5,282.5C 512.154,284.537 510.82,286.537 509.5,288.5C 507.487,289.475 506.154,291.142 505.5,293.5C 505.624,294.107 505.957,294.44 506.5,294.5C 506.5,295.167 506.167,295.5 505.5,295.5C 503.665,296.122 502.498,297.456 502,299.5C 479.626,260.585 457.126,221.752 434.5,183C 435.167,182 435.833,181 436.5,180C 436.272,179.601 435.938,179.435 435.5,179.5C 435.328,178.508 435.662,177.842 436.5,177.5C 436.81,178.738 437.31,178.738 438,177.5C 439.787,173.423 441.954,169.59 444.5,166C 444.272,165.601 443.938,165.435 443.5,165.5C 443.328,164.508 443.662,163.842 444.5,163.5C 444.81,164.738 445.31,164.738 446,163.5C 456.787,143.424 467.953,123.59 479.5,104C 479.272,103.601 478.938,103.435 478.5,103.5C 478.328,102.508 478.662,101.842 479.5,101.5C 479.81,102.738 480.31,102.738 481,101.5C 481.707,99.9194 482.54,98.4194 483.5,97C 483.272,96.6012 482.938,96.4346 482.5,96.5C 482.328,95.5084 482.662,94.8417 483.5,94.5C 483.81,95.7383 484.31,95.7383 485,94.5C 486.787,90.4234 488.954,86.59 491.5,83C 491.272,82.6012 490.938,82.4346 490.5,82.5C 490.328,81.5084 490.662,80.8417 491.5,80.5C 491.81,81.7383 492.31,81.7383 493,80.5C 495.12,75.7582 497.62,71.2582 500.5,67C 500.272,66.6012 499.938,66.4346 499.5,66.5C 499.418,64.7483 500.251,63.7483 502,63.5C 503.749,63.7483 504.582,64.7483 504.5,66.5 Z"/>
  </g>
  <g>
    <path style="opacity:0.129" fill="#4682b4" d="M 310.5,64.5 C 310.938,64.4346 311.272,64.6012 311.5,65C 310.54,66.4194 309.707,67.9194 309,69.5C 308.31,70.7383 307.81,70.7383 307.5,69.5C 308.263,67.6316 309.263,65.9649 310.5,64.5 Z"/>
  </g>
  <g>
    <path style="opacity:0.251" fill="#4682b4" d="M 494.5,60.5 C 493.167,63.1667 491.833,65.8333 490.5,68.5C 489.957,68.44 489.624,68.1067 489.5,67.5C 490.476,64.5013 492.142,62.168 494.5,60.5 Z"/>
  </g>
  <g>
    <path style="opacity:0.406" fill="#4682b4" d="M 489.5,69.5 C 488.5,71.5 487.5,73.5 486.5,75.5C 485.957,75.44 485.624,75.1067 485.5,74.5C 486.154,72.1419 487.487,70.4752 489.5,69.5 Z"/>
  </g>
  <g>
    <path style="opacity:0.129" fill="#4682b4" d="M 348.5,70.5 C 348.938,70.4346 349.272,70.6012 349.5,71C 346.954,74.59 344.787,78.4234 343,82.5C 342.31,83.7383 341.81,83.7383 341.5,82.5C 343.344,78.1362 345.677,74.1362 348.5,70.5 Z"/>
  </g>
  <g>
    <path style="opacity:0.137" fill="#4682b4" d="M 306.5,71.5 C 306.938,71.4346 307.272,71.6012 307.5,72C 306.54,73.4194 305.707,74.9194 305,76.5C 304.31,77.7383 303.81,77.7383 303.5,76.5C 304.263,74.6316 305.263,72.9649 306.5,71.5 Z"/>
  </g>
  <g>
    <path style="opacity:0.086" fill="#4682b4" d="M 499.5,66.5 C 499.938,66.4346 500.272,66.6012 500.5,67C 497.62,71.2582 495.12,75.7582 493,80.5C 492.31,81.7383 491.81,81.7383 491.5,80.5C 493.676,75.4722 496.343,70.8056 499.5,66.5 Z"/>
  </g>
  <g>
    <path style="opacity:0.427" fill="#4682b4" d="M 323.5,75.5 C 322.5,77.5 321.5,79.5 320.5,81.5C 319.957,81.44 319.624,81.1067 319.5,80.5C 320.154,78.1419 321.487,76.4752 323.5,75.5 Z"/>
  </g>
  <g>
    <path style="opacity:0.157" fill="#4682b4" d="M 504.5,66.5 C 523.197,97.8859 541.53,129.553 559.5,161.5C 559.19,162.738 558.69,162.738 558,161.5C 539.96,129.918 521.793,98.4183 503.5,67C 503.728,66.6012 504.062,66.4346 504.5,66.5 Z"/>
  </g>
  <g>
    <path style="opacity:0.353" fill="#4682b4" d="M 508.5,38.5 C 508.833,38.5 509.167,38.5 509.5,38.5C 511.017,38.5106 512.184,39.1772 513,40.5C 529.7,69.0376 546.2,97.7043 562.5,126.5C 562.376,127.107 562.043,127.44 561.5,127.5C 546.012,100.527 530.512,73.5274 515,46.5C 513.521,43.1725 511.355,40.5058 508.5,38.5 Z"/>
  </g>
  <g>
    <path style="opacity:0.149" fill="#4682b4" d="M 302.5,78.5 C 302.938,78.4346 303.272,78.6012 303.5,79C 302.54,80.4194 301.707,81.9194 301,83.5C 300.31,84.7383 299.81,84.7383 299.5,83.5C 300.263,81.6316 301.263,79.9649 302.5,78.5 Z"/>
  </g>
  <g>
    <path style="opacity:0.11" fill="#4682b4" d="M 490.5,82.5 C 490.938,82.4346 491.272,82.6012 491.5,83C 488.954,86.59 486.787,90.4234 485,94.5C 484.31,95.7383 483.81,95.7383 483.5,94.5C 485.344,90.1362 487.677,86.1362 490.5,82.5 Z"/>
  </g>
  <g>
    <path style="opacity:0.406" fill="#4682b4" d="M 319.5,82.5 C 318.5,84.5 317.5,86.5 316.5,88.5C 315.957,88.44 315.624,88.1067 315.5,87.5C 316.154,85.1419 317.487,83.4752 319.5,82.5 Z"/>
  </g>
  <g>
    <path style="opacity:0.086" fill="#4682b4" d="M 340.5,84.5 C 340.938,84.4346 341.272,84.6012 341.5,85C 339.288,87.9212 337.455,91.0879 336,94.5C 335.31,95.7383 334.81,95.7383 334.5,94.5C 336.012,90.7991 338.012,87.4658 340.5,84.5 Z"/>
  </g>
  <g>
    <path style="opacity:0.129" fill="#4682b4" d="M 295.5,90.5 C 295.938,90.4346 296.272,90.6012 296.5,91C 295.54,92.4194 294.707,93.9194 294,95.5C 293.31,96.7383 292.81,96.7383 292.5,95.5C 293.263,93.6316 294.263,91.9649 295.5,90.5 Z"/>
  </g>
  <g>
    <path style="opacity:0.137" fill="#4682b4" d="M 333.5,96.5 C 333.938,96.4346 334.272,96.6012 334.5,97C 331.954,100.59 329.787,104.423 328,108.5C 327.31,109.738 326.81,109.738 326.5,108.5C 328.344,104.136 330.677,100.136 333.5,96.5 Z"/>
  </g>
  <g>
    <path style="opacity:0.122" fill="#4682b4" d="M 482.5,96.5 C 482.938,96.4346 483.272,96.6012 483.5,97C 482.54,98.4194 481.707,99.9194 481,101.5C 480.31,102.738 479.81,102.738 479.5,101.5C 480.263,99.6316 481.263,97.9649 482.5,96.5 Z"/>
  </g>
  <g>
    <path style="opacity:0.137" fill="#4682b4" d="M 291.5,97.5 C 291.938,97.4346 292.272,97.6012 292.5,98C 291.54,99.4194 290.707,100.919 290,102.5C 289.31,103.738 288.81,103.738 288.5,102.5C 289.263,100.632 290.263,98.9649 291.5,97.5 Z"/>
  </g>
  <g>
    <path style="opacity:0.149" fill="#4682b4" d="M 287.5,104.5 C 287.938,104.435 288.272,104.601 288.5,105C 287.54,106.419 286.707,107.919 286,109.5C 285.31,110.738 284.81,110.738 284.5,109.5C 285.263,107.632 286.263,105.965 287.5,104.5 Z"/>
  </g>
  <g>
    <path style="opacity:0.406" fill="#4682b4" d="M 308.5,101.5 C 306.421,105.993 304.088,110.326 301.5,114.5C 300.957,114.44 300.624,114.107 300.5,113.5C 302.717,109.024 305.384,105.024 308.5,101.5 Z"/>
  </g>
  <g>
    <path style="opacity:0.086" fill="#4682b4" d="M 325.5,110.5 C 325.938,110.435 326.272,110.601 326.5,111C 324.288,113.921 322.455,117.088 321,120.5C 320.31,121.738 319.81,121.738 319.5,120.5C 321.012,116.799 323.012,113.466 325.5,110.5 Z"/>
  </g>
  <g>
    <path style="opacity:0.129" fill="#4682b4" d="M 280.5,116.5 C 280.938,116.435 281.272,116.601 281.5,117C 278.954,120.59 276.787,124.423 275,128.5C 274.31,129.738 273.81,129.738 273.5,128.5C 275.344,124.136 277.677,120.136 280.5,116.5 Z"/>
  </g>
  <g>
    <path style="opacity:0.251" fill="#4682b4" d="M 467.5,108.5 C 464.833,113.5 462.167,118.5 459.5,123.5C 458.957,123.44 458.624,123.107 458.5,122.5C 460.832,117.215 463.832,112.548 467.5,108.5 Z"/>
  </g>
  <g>
    <path style="opacity:0.157" fill="#4682b4" d="M 572.5,112.5 C 581.197,126.552 589.53,140.885 597.5,155.5C 597.19,156.738 596.69,156.738 596,155.5C 587.96,141.252 579.793,127.085 571.5,113C 571.728,112.601 572.062,112.435 572.5,112.5 Z"/>
  </g>
  <g>
    <path style="opacity:0.137" fill="#4682b4" d="M 318.5,122.5 C 318.938,122.435 319.272,122.601 319.5,123C 318.54,124.419 317.707,125.919 317,127.5C 316.31,128.738 315.81,128.738 315.5,127.5C 316.263,125.632 317.263,123.965 318.5,122.5 Z"/>
  </g>
  <g>
    <path style="opacity:0.406" fill="#4682b4" d="M 458.5,124.5 C 457.5,126.5 456.5,128.5 455.5,130.5C 454.957,130.44 454.624,130.107 454.5,129.5C 455.154,127.142 456.487,125.475 458.5,124.5 Z"/>
  </g>
  <g>
    <path style="opacity:0.149" fill="#4682b4" d="M 314.5,129.5 C 314.938,129.435 315.272,129.601 315.5,130C 314.54,131.419 313.707,132.919 313,134.5C 312.31,135.738 311.81,135.738 311.5,134.5C 312.263,132.632 313.263,130.965 314.5,129.5 Z"/>
  </g>
  <g>
    <path style="opacity:0.149" fill="#4682b4" d="M 272.5,130.5 C 272.938,130.435 273.272,130.601 273.5,131C 272.54,132.419 271.707,133.919 271,135.5C 270.31,136.738 269.81,136.738 269.5,135.5C 270.263,133.632 271.263,131.965 272.5,130.5 Z"/>
  </g>
  <g>
    <path style="opacity:0.398" fill="#4682b4" d="M 293.5,127.5 C 291.421,131.993 289.088,136.326 286.5,140.5C 285.957,140.44 285.624,140.107 285.5,139.5C 287.717,135.024 290.384,131.024 293.5,127.5 Z"/>
  </g>
  <g>
    <path style="opacity:0.098" fill="#4682b4" d="M 478.5,103.5 C 478.938,103.435 479.272,103.601 479.5,104C 467.953,123.59 456.787,143.424 446,163.5C 445.31,164.738 444.81,164.738 444.5,163.5C 455.342,143.14 466.676,123.14 478.5,103.5 Z"/>
  </g>
  <g>
    <path style="opacity:0.129" fill="#4682b4" d="M 307.5,141.5 C 307.938,141.435 308.272,141.601 308.5,142C 307.54,143.419 306.707,144.919 306,146.5C 305.31,147.738 304.81,147.738 304.5,146.5C 305.263,144.632 306.263,142.965 307.5,141.5 Z"/>
  </g>
  <g>
    <path style="opacity:0.129" fill="#4682b4" d="M 265.5,142.5 C 265.938,142.435 266.272,142.601 266.5,143C 264.5,146.333 262.5,149.667 260.5,153C 212.665,153.832 164.998,153.665 117.5,152.5C 164.835,152.667 212.168,152.5 259.5,152C 261.363,148.66 263.363,145.493 265.5,142.5 Z"/>
  </g>
  <g>
    <path style="opacity:0.137" fill="#4682b4" d="M 303.5,148.5 C 303.938,148.435 304.272,148.601 304.5,149C 303.54,150.419 302.707,151.919 302,153.5C 301.31,154.738 300.81,154.738 300.5,153.5C 301.263,151.632 302.263,149.965 303.5,148.5 Z"/>
  </g>
  <g>
    <path style="opacity:0.353" fill="#4682b4" d="M 562.5,128.5 C 571.837,142.228 580.504,156.562 588.5,171.5C 588.376,172.107 588.043,172.44 587.5,172.5C 579.167,157.833 570.833,143.167 562.5,128.5 Z"/>
  </g>
  <g>
    <path style="opacity:0.427" fill="#4682b4" d="M 278.5,153.5 C 277.5,155.5 276.5,157.5 275.5,159.5C 274.957,159.44 274.624,159.107 274.5,158.5C 275.154,156.142 276.487,154.475 278.5,153.5 Z"/>
  </g>
  <g>
    <path style="opacity:0.149" fill="#4682b4" d="M 299.5,155.5 C 299.938,155.435 300.272,155.601 300.5,156C 299.54,157.419 298.707,158.919 298,160.5C 297.31,161.738 296.81,161.738 296.5,160.5C 297.263,158.632 298.263,156.965 299.5,155.5 Z"/>
  </g>
  <g>
    <path style="opacity:0.11" fill="#4682b4" d="M 443.5,165.5 C 443.938,165.435 444.272,165.601 444.5,166C 441.954,169.59 439.787,173.423 438,177.5C 437.31,178.738 436.81,178.738 436.5,177.5C 438.344,173.136 440.677,169.136 443.5,165.5 Z"/>
  </g>
  <g>
    <path style="opacity:0.157" fill="#4682b4" d="M 598.5,157.5 C 602.003,162.502 605.003,167.835 607.5,173.5C 603.998,169.141 600.664,163.974 597.5,158C 597.728,157.601 598.062,157.435 598.5,157.5 Z"/>
  </g>
  <g>
    <path style="opacity:0.129" fill="#4682b4" d="M 292.5,167.5 C 292.938,167.435 293.272,167.601 293.5,168C 292.54,169.419 291.707,170.919 291,172.5C 290.31,173.738 289.81,173.738 289.5,172.5C 290.263,170.632 291.263,168.965 292.5,167.5 Z"/>
  </g>
  <g>
    <path style="opacity:0.098" fill="#4682b4" d="M 115.5,153.5 C 112.241,155.474 108.741,158.141 105,161.5C 102,166.833 99,172.167 96,177.5C 95.31,178.738 94.81,178.738 94.5,177.5C 97.6546,171.861 100.821,166.194 104,160.5C 107.184,156.996 111.018,154.663 115.5,153.5 Z"/>
  </g>
  <g>
    <path style="opacity:0.341" fill="#4682b4" d="M 431.5,172.5 C 431.196,173.15 430.863,173.817 430.5,174.5C 383.838,175.5 337.171,175.833 290.5,175.5C 337.48,175.148 384.48,174.148 431.5,172.5 Z"/>
  </g>
  <g>
    <path style="opacity:0.141" fill="#4682b4" d="M 560.5,163.5 C 563.892,168.605 567.059,173.938 570,179.5C 570.667,181.167 570.667,182.833 570,184.5C 568.606,186.388 567.44,188.388 566.5,190.5C 565.957,190.44 565.624,190.107 565.5,189.5C 567.051,187.116 568.385,184.616 569.5,182C 566.427,175.855 563.094,169.855 559.5,164C 559.728,163.601 560.062,163.435 560.5,163.5 Z"/>
  </g>
  <g>
    <path style="opacity:0.406" fill="#4682b4" d="M 114.5,176.5 C 113.5,178.5 112.5,180.5 111.5,182.5C 110.957,182.44 110.624,182.107 110.5,181.5C 111.154,179.142 112.487,177.475 114.5,176.5 Z"/>
  </g>
  <g>
    <path style="opacity:0.398" fill="#4682b4" d="M 110.5,183.5 C 109.5,185.5 108.5,187.5 107.5,189.5C 106.957,189.44 106.624,189.107 106.5,188.5C 107.154,186.142 108.487,184.475 110.5,183.5 Z"/>
  </g>
  <g>
    <path style="opacity:0.208" fill="#4682b4" d="M 588.5,173.5 C 593.148,176.821 594.315,181.154 592,186.5C 591.31,187.738 590.81,187.738 590.5,186.5C 591.289,185.085 591.956,183.585 592.5,182C 591.289,179.08 589.956,176.247 588.5,173.5 Z"/>
  </g>
  <g>
    <path style="opacity:0.129" fill="#4682b4" d="M 90.5,184.5 C 90.9382,184.435 91.2716,184.601 91.5,185C 88.9536,188.59 86.7869,192.423 85,196.5C 84.31,197.738 83.81,197.738 83.5,196.5C 85.3437,192.136 87.677,188.136 90.5,184.5 Z"/>
  </g>
  <g>
    <path style="opacity:0.078" fill="#4682b4" d="M 261.5,192.5 C 260.347,191.687 260.347,190.687 261.5,189.5C 217.837,188.333 174.17,188.167 130.5,189C 128,193.5 125.5,198 123,202.5C 122.31,203.738 121.81,203.738 121.5,202.5C 123.938,197.557 126.604,192.723 129.5,188C 173.832,187.5 218.165,187.333 262.5,187.5C 262.634,189.292 262.301,190.958 261.5,192.5 Z"/>
  </g>
  <g>
    <path style="opacity:0.993" fill="#4682b4" d="M 261.5,192.5 C 261.5,193.167 261.167,193.5 260.5,193.5C 257.719,196.35 255.386,199.683 253.5,203.5C 253.624,204.107 253.957,204.44 254.5,204.5C 254.5,205.167 254.167,205.5 253.5,205.5C 251.487,206.475 250.154,208.142 249.5,210.5C 249.624,211.107 249.957,211.44 250.5,211.5C 250.5,212.167 250.167,212.5 249.5,212.5C 247.487,213.475 246.154,215.142 245.5,217.5C 245.624,218.107 245.957,218.44 246.5,218.5C 246.5,219.167 246.167,219.5 245.5,219.5C 242.719,222.35 240.386,225.683 238.5,229.5C 238.624,230.107 238.957,230.44 239.5,230.5C 239.5,231.167 239.167,231.5 238.5,231.5C 236.487,232.475 235.154,234.142 234.5,236.5C 234.624,237.107 234.957,237.44 235.5,237.5C 235.5,238.167 235.167,238.5 234.5,238.5C 232.487,239.475 231.154,241.142 230.5,243.5C 230.624,244.107 230.957,244.44 231.5,244.5C 231.5,245.167 231.167,245.5 230.5,245.5C 227.719,248.35 225.386,251.683 223.5,255.5C 223.624,256.107 223.957,256.44 224.5,256.5C 224.5,257.167 224.167,257.5 223.5,257.5C 221.487,258.475 220.154,260.142 219.5,262.5C 219.624,263.107 219.957,263.44 220.5,263.5C 220.5,264.167 220.167,264.5 219.5,264.5C 217.487,265.475 216.154,267.142 215.5,269.5C 215.624,270.107 215.957,270.44 216.5,270.5C 216.5,271.167 216.167,271.5 215.5,271.5C 212.719,274.35 210.386,277.683 208.5,281.5C 208.624,282.107 208.957,282.44 209.5,282.5C 209.5,283.167 209.167,283.5 208.5,283.5C 206.487,284.475 205.154,286.142 204.5,288.5C 204.624,289.107 204.957,289.44 205.5,289.5C 205.5,290.167 205.167,290.5 204.5,290.5C 202.487,291.475 201.154,293.142 200.5,295.5C 200.624,296.107 200.957,296.44 201.5,296.5C 201.5,297.167 201.167,297.5 200.5,297.5C 197.719,300.35 195.386,303.683 193.5,307.5C 193.624,308.107 193.957,308.44 194.5,308.5C 194.389,309.117 194.056,309.617 193.5,310C 148.83,310.833 104.163,310.667 59.5,309.5C 61.1645,305.865 63.1645,302.531 65.5,299.5C 65.81,300.738 66.31,300.738 67,299.5C 68.7869,295.423 70.9536,291.59 73.5,288C 73.2716,287.601 72.9382,287.435 72.5,287.5C 73.5839,284.996 74.9172,282.663 76.5,280.5C 76.81,281.738 77.31,281.738 78,280.5C 78.7065,278.919 79.5399,277.419 80.5,276C 80.2716,275.601 79.9382,275.435 79.5,275.5C 79.3284,274.508 79.6618,273.842 80.5,273.5C 80.81,274.738 81.31,274.738 82,273.5C 83.7869,269.423 85.9536,265.59 88.5,262C 88.2716,261.601 87.9382,261.435 87.5,261.5C 88.5839,258.996 89.9172,256.663 91.5,254.5C 91.81,255.738 92.31,255.738 93,254.5C 93.7065,252.919 94.5399,251.419 95.5,250C 95.2716,249.601 94.9382,249.435 94.5,249.5C 94.3284,248.508 94.6618,247.842 95.5,247.5C 95.81,248.738 96.31,248.738 97,247.5C 97.7065,245.919 98.5399,244.419 99.5,243C 99.2716,242.601 98.9382,242.435 98.5,242.5C 98.3284,241.508 98.6618,240.842 99.5,240.5C 99.81,241.738 100.31,241.738 101,240.5C 101.707,238.919 102.54,237.419 103.5,236C 103.272,235.601 102.938,235.435 102.5,235.5C 103.584,232.996 104.917,230.663 106.5,228.5C 106.81,229.738 107.31,229.738 108,228.5C 108.707,226.919 109.54,225.419 110.5,224C 110.272,223.601 109.938,223.435 109.5,223.5C 109.328,222.508 109.662,221.842 110.5,221.5C 110.81,222.738 111.31,222.738 112,221.5C 112.707,219.919 113.54,218.419 114.5,217C 114.272,216.601 113.938,216.435 113.5,216.5C 113.328,215.508 113.662,214.842 114.5,214.5C 114.81,215.738 115.31,215.738 116,214.5C 116.707,212.919 117.54,211.419 118.5,210C 118.272,209.601 117.938,209.435 117.5,209.5C 118.584,206.996 119.917,204.663 121.5,202.5C 121.81,203.738 122.31,203.738 123,202.5C 125.5,198 128,193.5 130.5,189C 174.17,188.167 217.837,188.333 261.5,189.5C 260.347,190.687 260.347,191.687 261.5,192.5 Z"/>
  </g>
  <g>
    <path style="opacity:0.997" fill="#4682b4" d="M 420.5,188.5 C 421.573,189.251 421.74,190.251 421,191.5C 418.807,195.23 416.64,198.897 414.5,202.5C 410.832,206.548 407.832,211.215 405.5,216.5C 405.624,217.107 405.957,217.44 406.5,217.5C 406.5,218.167 406.167,218.5 405.5,218.5C 403.487,219.475 402.154,221.142 401.5,223.5C 401.624,224.107 401.957,224.44 402.5,224.5C 400.485,227.869 398.485,231.202 396.5,234.5C 394.487,235.475 393.154,237.142 392.5,239.5C 392.624,240.107 392.957,240.44 393.5,240.5C 390.404,246.367 387.071,252.033 383.5,257.5C 381.487,258.475 380.154,260.142 379.5,262.5C 379.624,263.107 379.957,263.44 380.5,263.5C 374.404,274.699 368.071,285.699 361.5,296.5C 359.487,297.475 358.154,299.142 357.5,301.5C 357.624,302.107 357.957,302.44 358.5,302.5C 358.5,303.167 358.167,303.5 357.5,303.5C 355.204,304.733 353.87,306.733 353.5,309.5C 305.499,309.667 257.499,309.5 209.5,309C 211.5,305.667 213.5,302.333 215.5,299C 215.272,298.601 214.938,298.435 214.5,298.5C 214.328,297.508 214.662,296.842 215.5,296.5C 215.81,297.738 216.31,297.738 217,296.5C 218.455,293.088 220.288,289.921 222.5,287C 222.272,286.601 221.938,286.435 221.5,286.5C 221.328,285.508 221.662,284.842 222.5,284.5C 222.81,285.738 223.31,285.738 224,284.5C 225.787,280.423 227.954,276.59 230.5,273C 230.272,272.601 229.938,272.435 229.5,272.5C 230.584,269.996 231.917,267.663 233.5,265.5C 233.81,266.738 234.31,266.738 235,265.5C 235.707,263.919 236.54,262.419 237.5,261C 237.272,260.601 236.938,260.435 236.5,260.5C 236.328,259.508 236.662,258.842 237.5,258.5C 237.81,259.738 238.31,259.738 239,258.5C 239.707,256.919 240.54,255.419 241.5,254C 241.272,253.601 240.938,253.435 240.5,253.5C 240.328,252.508 240.662,251.842 241.5,251.5C 241.81,252.738 242.31,252.738 243,251.5C 243.707,249.919 244.54,248.419 245.5,247C 245.272,246.601 244.938,246.435 244.5,246.5C 245.584,243.996 246.917,241.663 248.5,239.5C 248.81,240.738 249.31,240.738 250,239.5C 250.707,237.919 251.54,236.419 252.5,235C 252.272,234.601 251.938,234.435 251.5,234.5C 251.328,233.508 251.662,232.842 252.5,232.5C 252.81,233.738 253.31,233.738 254,232.5C 254.707,230.919 255.54,229.419 256.5,228C 256.272,227.601 255.938,227.435 255.5,227.5C 255.328,226.508 255.662,225.842 256.5,225.5C 256.81,226.738 257.31,226.738 258,225.5C 259.455,222.088 261.288,218.921 263.5,216C 263.272,215.601 262.938,215.435 262.5,215.5C 262.328,214.508 262.662,213.842 263.5,213.5C 263.81,214.738 264.31,214.738 265,213.5C 266.787,209.423 268.954,205.59 271.5,202C 271.272,201.601 270.938,201.435 270.5,201.5C 270.328,200.508 270.662,199.842 271.5,199.5C 271.81,200.738 272.31,200.738 273,199.5C 274.455,196.088 276.288,192.921 278.5,190C 326.002,189.833 373.335,189.333 420.5,188.5 Z"/>
  </g>
  <g>
    <path style="opacity:0.11" fill="#4682b4" d="M 420.5,188.5 C 373.335,189.333 326.002,189.833 278.5,190C 276.288,192.921 274.455,196.088 273,199.5C 272.31,200.738 271.81,200.738 271.5,199.5C 273.109,195.783 275.109,192.283 277.5,189C 325.166,188.5 372.832,188.333 420.5,188.5 Z"/>
  </g>
  <g>
    <path style="opacity:0.192" fill="#4682b4" d="M 608.5,183.5 C 608.599,186.237 608.265,188.904 607.5,191.5C 606.903,191.265 606.57,190.765 606.5,190C 606.99,187.654 607.657,185.487 608.5,183.5 Z"/>
  </g>
  <g>
    <path style="opacity:0.406" fill="#4682b4" d="M 565.5,191.5 C 564.5,193.5 563.5,195.5 562.5,197.5C 561.957,197.44 561.624,197.107 561.5,196.5C 562.154,194.142 563.487,192.475 565.5,191.5 Z"/>
  </g>
  <g>
    <path style="opacity:0.129" fill="#4682b4" d="M 586.5,193.5 C 586.938,193.435 587.272,193.601 587.5,194C 584.954,197.59 582.787,201.423 581,205.5C 580.31,206.738 579.81,206.738 579.5,205.5C 581.344,201.136 583.677,197.136 586.5,193.5 Z"/>
  </g>
  <g>
    <path style="opacity:0.251" fill="#4682b4" d="M 260.5,193.5 C 258.754,197.327 256.754,200.993 254.5,204.5C 253.957,204.44 253.624,204.107 253.5,203.5C 255.386,199.683 257.719,196.35 260.5,193.5 Z"/>
  </g>
  <g>
    <path style="opacity:0.994" fill="#4682b4" d="M 491.5,316.5 C 491.5,317.167 491.167,317.5 490.5,317.5C 488.487,318.475 487.154,320.142 486.5,322.5C 486.624,323.107 486.957,323.44 487.5,323.5C 486.154,325.537 484.82,327.537 483.5,329.5C 481.487,330.475 480.154,332.142 479.5,334.5C 479.624,335.107 479.957,335.44 480.5,335.5C 480.5,336.167 480.167,336.5 479.5,336.5C 477.487,337.475 476.154,339.142 475.5,341.5C 475.624,342.107 475.957,342.44 476.5,342.5C 475.154,344.537 473.82,346.537 472.5,348.5C 470.487,349.475 469.154,351.142 468.5,353.5C 468.624,354.107 468.957,354.44 469.5,354.5C 469.5,355.167 469.167,355.5 468.5,355.5C 466.487,356.475 465.154,358.142 464.5,360.5C 464.624,361.107 464.957,361.44 465.5,361.5C 465.5,362.167 465.167,362.5 464.5,362.5C 462.487,363.475 461.154,365.142 460.5,367.5C 460.624,368.107 460.957,368.44 461.5,368.5C 460.154,370.537 458.82,372.537 457.5,374.5C 455.487,375.475 454.154,377.142 453.5,379.5C 453.624,380.107 453.957,380.44 454.5,380.5C 454.5,381.167 454.167,381.5 453.5,381.5C 451.487,382.475 450.154,384.142 449.5,386.5C 449.624,387.107 449.957,387.44 450.5,387.5C 449.154,389.537 447.82,391.537 446.5,393.5C 443.384,397.024 440.717,401.024 438.5,405.5C 438.624,406.107 438.957,406.44 439.5,406.5C 437.07,411.037 434.403,415.37 431.5,419.5C 429.487,420.475 428.154,422.142 427.5,424.5C 427.624,425.107 427.957,425.44 428.5,425.5C 428.5,426.167 428.167,426.5 427.5,426.5C 426.25,426.577 425.417,427.244 425,428.5C 402.662,391.161 380.828,353.494 359.5,315.5C 367.124,303.224 373.79,290.891 379.5,278.5C 379.328,277.508 379.662,276.842 380.5,276.5C 380.81,277.738 381.31,277.738 382,276.5C 384.5,272 387,267.5 389.5,263C 389.272,262.601 388.938,262.435 388.5,262.5C 388.328,261.508 388.662,260.842 389.5,260.5C 389.81,261.738 390.31,261.738 391,260.5C 396.167,251.333 401.333,242.167 406.5,233C 406.272,232.601 405.938,232.435 405.5,232.5C 405.328,231.508 405.662,230.842 406.5,230.5C 406.81,231.738 407.31,231.738 408,230.5C 408.707,228.919 409.54,227.419 410.5,226C 410.272,225.601 409.938,225.435 409.5,225.5C 409.328,224.508 409.662,223.842 410.5,223.5C 410.81,224.738 411.31,224.738 412,223.5C 413.787,219.423 415.954,215.59 418.5,212C 418.272,211.601 417.938,211.435 417.5,211.5C 417.328,210.508 417.662,209.842 418.5,209.5C 418.81,210.738 419.31,210.738 420,209.5C 421.746,205.673 423.746,202.007 426,198.5C 447,234.5 468,270.5 489,306.5C 491.158,309.79 491.991,313.124 491.5,316.5 Z"/>
  </g>
  <g>
    <path style="opacity:0.398" fill="#4682b4" d="M 561.5,198.5 C 560.5,200.5 559.5,202.5 558.5,204.5C 557.957,204.44 557.624,204.107 557.5,203.5C 558.154,201.142 559.487,199.475 561.5,198.5 Z"/>
  </g>
  <g>
    <path style="opacity:0.086" fill="#4682b4" d="M 82.5,198.5 C 82.9382,198.435 83.2716,198.601 83.5,199C 81.2879,201.921 79.4545,205.088 78,208.5C 77.31,209.738 76.81,209.738 76.5,208.5C 78.0116,204.799 80.0116,201.466 82.5,198.5 Z"/>
  </g>
  <g>
    <path style="opacity:0.398" fill="#4682b4" d="M 103.5,195.5 C 101.421,199.993 99.0877,204.326 96.5,208.5C 95.9569,208.44 95.6236,208.107 95.5,207.5C 97.7175,203.024 100.384,199.024 103.5,195.5 Z"/>
  </g>
  <g>
    <path style="opacity:0.129" fill="#4682b4" d="M 270.5,201.5 C 270.938,201.435 271.272,201.601 271.5,202C 268.954,205.59 266.787,209.423 265,213.5C 264.31,214.738 263.81,214.738 263.5,213.5C 265.344,209.136 267.677,205.136 270.5,201.5 Z"/>
  </g>
  <g>
    <path style="opacity:0.406" fill="#4682b4" d="M 253.5,205.5 C 252.5,207.5 251.5,209.5 250.5,211.5C 249.957,211.44 249.624,211.107 249.5,210.5C 250.154,208.142 251.487,206.475 253.5,205.5 Z"/>
  </g>
  <g>
    <path style="opacity:0.251" fill="#4682b4" d="M 557.5,205.5 C 555.754,209.327 553.754,212.993 551.5,216.5C 550.957,216.44 550.624,216.107 550.5,215.5C 552.386,211.683 554.719,208.35 557.5,205.5 Z"/>
  </g>
  <g>
    <path style="opacity:0.353" fill="#4682b4" d="M 435.5,179.5 C 435.938,179.435 436.272,179.601 436.5,180C 435.833,181 435.167,182 434.5,183C 457.126,221.752 479.626,260.585 502,299.5C 502.498,297.456 503.665,296.122 505.5,295.5C 504.847,296.807 504.18,298.14 503.5,299.5C 502.349,300.731 501.183,300.731 500,299.5C 477.817,260.657 455.65,221.823 433.5,183C 433.808,181.541 434.475,180.374 435.5,179.5 Z"/>
  </g>
  <g>
    <path style="opacity:0.129" fill="#4682b4" d="M 117.5,209.5 C 117.938,209.435 118.272,209.601 118.5,210C 117.54,211.419 116.707,212.919 116,214.5C 115.31,215.738 114.81,215.738 114.5,214.5C 115.263,212.632 116.263,210.965 117.5,209.5 Z"/>
  </g>
  <g>
    <path style="opacity:0.11" fill="#4682b4" d="M 417.5,211.5 C 417.938,211.435 418.272,211.601 418.5,212C 415.954,215.59 413.787,219.423 412,223.5C 411.31,224.738 410.81,224.738 410.5,223.5C 412.344,219.136 414.677,215.136 417.5,211.5 Z"/>
  </g>
  <g>
    <path style="opacity:0.137" fill="#4682b4" d="M 75.5,210.5 C 75.9382,210.435 76.2716,210.601 76.5,211C 75.5399,212.419 74.7065,213.919 74,215.5C 73.31,216.738 72.81,216.738 72.5,215.5C 73.2632,213.632 74.2632,211.965 75.5,210.5 Z"/>
  </g>
  <g>
    <path style="opacity:0.086" fill="#4682b4" d="M 578.5,207.5 C 578.938,207.435 579.272,207.601 579.5,208C 577.288,210.921 575.455,214.088 574,217.5C 573.31,218.738 572.81,218.738 572.5,217.5C 574.012,213.799 576.012,210.466 578.5,207.5 Z"/>
  </g>
  <g>
    <path style="opacity:0.398" fill="#4682b4" d="M 599.5,204.5 C 597.421,208.993 595.088,213.326 592.5,217.5C 591.957,217.44 591.624,217.107 591.5,216.5C 593.717,212.024 596.384,208.024 599.5,204.5 Z"/>
  </g>
  <g>
    <path style="opacity:0.251" fill="#4682b4" d="M 95.5,209.5 C 93.754,213.327 91.754,216.993 89.5,220.5C 88.5354,219.279 88.702,217.946 90,216.5C 91.391,213.664 93.2243,211.331 95.5,209.5 Z"/>
  </g>
  <g>
    <path style="opacity:0.398" fill="#4682b4" d="M 249.5,212.5 C 248.5,214.5 247.5,216.5 246.5,218.5C 245.957,218.44 245.624,218.107 245.5,217.5C 246.154,215.142 247.487,213.475 249.5,212.5 Z"/>
  </g>
  <g>
    <path style="opacity:0.251" fill="#4682b4" d="M 414.5,202.5 C 411.833,207.5 409.167,212.5 406.5,217.5C 405.957,217.44 405.624,217.107 405.5,216.5C 407.832,211.215 410.832,206.548 414.5,202.5 Z"/>
  </g>
  <g>
    <path style="opacity:0.137" fill="#4682b4" d="M 113.5,216.5 C 113.938,216.435 114.272,216.601 114.5,217C 113.54,218.419 112.707,219.919 112,221.5C 111.31,222.738 110.81,222.738 110.5,221.5C 111.263,219.632 112.263,217.965 113.5,216.5 Z"/>
  </g>
  <g>
    <path style="opacity:0.406" fill="#4682b4" d="M 550.5,217.5 C 549.5,219.5 548.5,221.5 547.5,223.5C 546.957,223.44 546.624,223.107 546.5,222.5C 547.154,220.142 548.487,218.475 550.5,217.5 Z"/>
  </g>
  <g>
    <path style="opacity:0.149" fill="#4682b4" d="M 71.5,217.5 C 71.9382,217.435 72.2716,217.601 72.5,218C 71.5399,219.419 70.7065,220.919 70,222.5C 69.31,223.738 68.81,223.738 68.5,222.5C 69.2632,220.632 70.2632,218.965 71.5,217.5 Z"/>
  </g>
  <g>
    <path style="opacity:0.406" fill="#4682b4" d="M 405.5,218.5 C 404.5,220.5 403.5,222.5 402.5,224.5C 401.957,224.44 401.624,224.107 401.5,223.5C 402.154,221.142 403.487,219.475 405.5,218.5 Z"/>
  </g>
  <g>
    <path style="opacity:0.086" fill="#4682b4" d="M 262.5,215.5 C 262.938,215.435 263.272,215.601 263.5,216C 261.288,218.921 259.455,222.088 258,225.5C 257.31,226.738 256.81,226.738 256.5,225.5C 258.012,221.799 260.012,218.466 262.5,215.5 Z"/>
  </g>
  <g>
    <path style="opacity:0.137" fill="#4682b4" d="M 571.5,219.5 C 571.938,219.435 572.272,219.601 572.5,220C 569.954,223.59 567.787,227.423 566,231.5C 565.31,232.738 564.81,232.738 564.5,231.5C 566.344,227.136 568.677,223.136 571.5,219.5 Z"/>
  </g>
  <g>
    <path style="opacity:0.406" fill="#4682b4" d="M 88.5,221.5 C 87.5,223.5 86.5,225.5 85.5,227.5C 84.9569,227.44 84.6236,227.107 84.5,226.5C 85.1539,224.142 86.4872,222.475 88.5,221.5 Z"/>
  </g>
  <g>
    <path style="opacity:0.251" fill="#4682b4" d="M 591.5,218.5 C 589.754,222.327 587.754,225.993 585.5,229.5C 584.957,229.44 584.624,229.107 584.5,228.5C 586.386,224.683 588.719,221.35 591.5,218.5 Z"/>
  </g>
  <g>
    <path style="opacity:0.251" fill="#4682b4" d="M 245.5,219.5 C 243.754,223.327 241.754,226.993 239.5,230.5C 238.957,230.44 238.624,230.107 238.5,229.5C 240.386,225.683 242.719,222.35 245.5,219.5 Z"/>
  </g>
  <g>
    <path style="opacity:0.149" fill="#4682b4" d="M 109.5,223.5 C 109.938,223.435 110.272,223.601 110.5,224C 109.54,225.419 108.707,226.919 108,228.5C 107.31,229.738 106.81,229.738 106.5,228.5C 107.263,226.632 108.263,224.965 109.5,223.5 Z"/>
  </g>
  <g>
    <path style="opacity:0.398" fill="#4682b4" d="M 546.5,224.5 C 545.5,226.5 544.5,228.5 543.5,230.5C 542.957,230.44 542.624,230.107 542.5,229.5C 543.154,227.142 544.487,225.475 546.5,224.5 Z"/>
  </g>
  <g>
    <path style="opacity:0.122" fill="#4682b4" d="M 409.5,225.5 C 409.938,225.435 410.272,225.601 410.5,226C 409.54,227.419 408.707,228.919 408,230.5C 407.31,231.738 406.81,231.738 406.5,230.5C 407.263,228.632 408.263,226.965 409.5,225.5 Z"/>
  </g>
  <g>
    <path style="opacity:0.137" fill="#4682b4" d="M 255.5,227.5 C 255.938,227.435 256.272,227.601 256.5,228C 255.54,229.419 254.707,230.919 254,232.5C 253.31,233.738 252.81,233.738 252.5,232.5C 253.263,230.632 254.263,228.965 255.5,227.5 Z"/>
  </g>
  <g>
    <path style="opacity:0.129" fill="#4682b4" d="M 64.5,229.5 C 64.9382,229.435 65.2716,229.601 65.5,230C 62.9536,233.59 60.7869,237.423 59,241.5C 58.31,242.738 57.81,242.738 57.5,241.5C 59.3437,237.136 61.677,233.136 64.5,229.5 Z"/>
  </g>
  <g>
    <path style="opacity:0.406" fill="#4682b4" d="M 584.5,230.5 C 583.5,232.5 582.5,234.5 581.5,236.5C 580.957,236.44 580.624,236.107 580.5,235.5C 581.154,233.142 582.487,231.475 584.5,230.5 Z"/>
  </g>
  <g>
    <path style="opacity:0.406" fill="#4682b4" d="M 238.5,231.5 C 237.5,233.5 236.5,235.5 235.5,237.5C 234.957,237.44 234.624,237.107 234.5,236.5C 235.154,234.142 236.487,232.475 238.5,231.5 Z"/>
  </g>
  <g>
    <path style="opacity:0.398" fill="#4682b4" d="M 396.5,234.5 C 395.5,236.5 394.5,238.5 393.5,240.5C 392.957,240.44 392.624,240.107 392.5,239.5C 393.154,237.142 394.487,235.475 396.5,234.5 Z"/>
  </g>
  <g>
    <path style="opacity:0.149" fill="#4682b4" d="M 251.5,234.5 C 251.938,234.435 252.272,234.601 252.5,235C 251.54,236.419 250.707,237.919 250,239.5C 249.31,240.738 248.81,240.738 248.5,239.5C 249.263,237.632 250.263,235.965 251.5,234.5 Z"/>
  </g>
  <g>
    <path style="opacity:0.149" fill="#4682b4" d="M 405.5,232.5 C 405.938,232.435 406.272,232.601 406.5,233C 401.333,242.167 396.167,251.333 391,260.5C 390.31,261.738 389.81,261.738 389.5,260.5C 394.469,250.887 399.803,241.554 405.5,232.5 Z"/>
  </g>
  <g>
    <path style="opacity:0.129" fill="#4682b4" d="M 102.5,235.5 C 102.938,235.435 103.272,235.601 103.5,236C 102.54,237.419 101.707,238.919 101,240.5C 100.31,241.738 99.81,241.738 99.5,240.5C 100.263,238.632 101.263,236.965 102.5,235.5 Z"/>
  </g>
  <g>
    <path style="opacity:0.427" fill="#4682b4" d="M 539.5,236.5 C 538.5,238.5 537.5,240.5 536.5,242.5C 535.957,242.44 535.624,242.107 535.5,241.5C 536.154,239.142 537.487,237.475 539.5,236.5 Z"/>
  </g>
  <g>
    <path style="opacity:0.398" fill="#4682b4" d="M 234.5,238.5 C 233.5,240.5 232.5,242.5 231.5,244.5C 230.957,244.44 230.624,244.107 230.5,243.5C 231.154,241.142 232.487,239.475 234.5,238.5 Z"/>
  </g>
  <g>
    <path style="opacity:0.129" fill="#4682b4" d="M 560.5,238.5 C 560.938,238.435 561.272,238.601 561.5,239C 558.954,242.59 556.787,246.423 555,250.5C 554.31,251.738 553.81,251.738 553.5,250.5C 555.344,246.136 557.677,242.136 560.5,238.5 Z"/>
  </g>
  <g>
    <path style="opacity:0.427" fill="#4682b4" d="M 77.5,240.5 C 76.5,242.5 75.5,244.5 74.5,246.5C 73.9569,246.44 73.6236,246.107 73.5,245.5C 74.1539,243.142 75.4872,241.475 77.5,240.5 Z"/>
  </g>
  <g>
    <path style="opacity:0.137" fill="#4682b4" d="M 98.5,242.5 C 98.9382,242.435 99.2716,242.601 99.5,243C 98.5399,244.419 97.7065,245.919 97,247.5C 96.31,248.738 95.81,248.738 95.5,247.5C 96.2632,245.632 97.2632,243.965 98.5,242.5 Z"/>
  </g>
  <g>
    <path style="opacity:0.406" fill="#4682b4" d="M 535.5,243.5 C 534.5,245.5 533.5,247.5 532.5,249.5C 531.957,249.44 531.624,249.107 531.5,248.5C 532.154,246.142 533.487,244.475 535.5,243.5 Z"/>
  </g>
  <g>
    <path style="opacity:0.086" fill="#4682b4" d="M 56.5,243.5 C 56.9382,243.435 57.2716,243.601 57.5,244C 55.2879,246.921 53.4545,250.088 52,253.5C 51.31,254.738 50.81,254.738 50.5,253.5C 52.0116,249.799 54.0116,246.466 56.5,243.5 Z"/>
  </g>
  <g>
    <path style="opacity:0.398" fill="#4682b4" d="M 73.5,247.5 C 72.5,249.5 71.5,251.5 70.5,253.5C 69.9569,253.44 69.6236,253.107 69.5,252.5C 70.1539,250.142 71.4872,248.475 73.5,247.5 Z"/>
  </g>
  <g>
    <path style="opacity:0.129" fill="#4682b4" d="M 244.5,246.5 C 244.938,246.435 245.272,246.601 245.5,247C 244.54,248.419 243.707,249.919 243,251.5C 242.31,252.738 241.81,252.738 241.5,251.5C 242.263,249.632 243.263,247.965 244.5,246.5 Z"/>
  </g>
  <g>
    <path style="opacity:0.251" fill="#4682b4" d="M 230.5,245.5 C 228.754,249.327 226.754,252.993 224.5,256.5C 223.957,256.44 223.624,256.107 223.5,255.5C 225.386,251.683 227.719,248.35 230.5,245.5 Z"/>
  </g>
  <g>
    <path style="opacity:0.427" fill="#4682b4" d="M 573.5,249.5 C 572.5,251.5 571.5,253.5 570.5,255.5C 569.957,255.44 569.624,255.107 569.5,254.5C 570.154,252.142 571.487,250.475 573.5,249.5 Z"/>
  </g>
  <g>
    <path style="opacity:0.149" fill="#4682b4" d="M 94.5,249.5 C 94.9382,249.435 95.2716,249.601 95.5,250C 94.5399,251.419 93.7065,252.919 93,254.5C 92.31,255.738 91.81,255.738 91.5,254.5C 92.2632,252.632 93.2632,250.965 94.5,249.5 Z"/>
  </g>
  <g>
    <path style="opacity:0.398" fill="#4682b4" d="M 531.5,250.5 C 530.5,252.5 529.5,254.5 528.5,256.5C 527.957,256.44 527.624,256.107 527.5,255.5C 528.154,253.142 529.487,251.475 531.5,250.5 Z"/>
  </g>
  <g>
    <path style="opacity:0.137" fill="#4682b4" d="M 240.5,253.5 C 240.938,253.435 241.272,253.601 241.5,254C 240.54,255.419 239.707,256.919 239,258.5C 238.31,259.738 237.81,259.738 237.5,258.5C 238.263,256.632 239.263,254.965 240.5,253.5 Z"/>
  </g>
  <g>
    <path style="opacity:0.137" fill="#4682b4" d="M 49.5,255.5 C 49.9382,255.435 50.2716,255.601 50.5,256C 49.5399,257.419 48.7065,258.919 48,260.5C 47.31,261.738 46.81,261.738 46.5,260.5C 47.2632,258.632 48.2632,256.965 49.5,255.5 Z"/>
  </g>
  <g>
    <path style="opacity:0.086" fill="#4682b4" d="M 552.5,252.5 C 552.938,252.435 553.272,252.601 553.5,253C 551.288,255.921 549.455,259.088 548,262.5C 547.31,263.738 546.81,263.738 546.5,262.5C 548.012,258.799 550.012,255.466 552.5,252.5 Z"/>
  </g>
  <g>
    <path style="opacity:0.398" fill="#4682b4" d="M 569.5,256.5 C 568.5,258.5 567.5,260.5 566.5,262.5C 565.957,262.44 565.624,262.107 565.5,261.5C 566.154,259.142 567.487,257.475 569.5,256.5 Z"/>
  </g>
  <g>
    <path style="opacity:0.406" fill="#4682b4" d="M 223.5,257.5 C 222.5,259.5 221.5,261.5 220.5,263.5C 219.957,263.44 219.624,263.107 219.5,262.5C 220.154,260.142 221.487,258.475 223.5,257.5 Z"/>
  </g>
  <g>
    <path style="opacity:0.406" fill="#4682b4" d="M 383.5,257.5 C 382.5,259.5 381.5,261.5 380.5,263.5C 379.957,263.44 379.624,263.107 379.5,262.5C 380.154,260.142 381.487,258.475 383.5,257.5 Z"/>
  </g>
  <g>
    <path style="opacity:0.427" fill="#4682b4" d="M 66.5,259.5 C 65.5,261.5 64.5,263.5 63.5,265.5C 62.9569,265.44 62.6236,265.107 62.5,264.5C 63.1539,262.142 64.4872,260.475 66.5,259.5 Z"/>
  </g>
  <g>
    <path style="opacity:0.157" fill="#4682b4" d="M 491.5,316.5 C 491.991,313.124 491.158,309.79 489,306.5C 468,270.5 447,234.5 426,198.5C 423.746,202.007 421.746,205.673 420,209.5C 419.31,210.738 418.81,210.738 418.5,209.5C 420.234,205.7 422.234,202.034 424.5,198.5C 425.651,197.269 426.817,197.269 428,198.5C 450.086,236.337 471.919,274.337 493.5,312.5C 492.82,313.86 492.153,315.193 491.5,316.5 Z"/>
  </g>
  <g>
    <path style="opacity:0.149" fill="#4682b4" d="M 236.5,260.5 C 236.938,260.435 237.272,260.601 237.5,261C 236.54,262.419 235.707,263.919 235,265.5C 234.31,266.738 233.81,266.738 233.5,265.5C 234.263,263.632 235.263,261.965 236.5,260.5 Z"/>
  </g>
  <g>
    <path style="opacity:0.129" fill="#4682b4" d="M 87.5,261.5 C 87.9382,261.435 88.2716,261.601 88.5,262C 85.9536,265.59 83.7869,269.423 82,273.5C 81.31,274.738 80.81,274.738 80.5,273.5C 82.3437,269.136 84.677,265.136 87.5,261.5 Z"/>
  </g>
  <g>
    <path style="opacity:0.427" fill="#4682b4" d="M 524.5,262.5 C 523.5,264.5 522.5,266.5 521.5,268.5C 520.957,268.44 520.624,268.107 520.5,267.5C 521.154,265.142 522.487,263.475 524.5,262.5 Z"/>
  </g>
  <g>
    <path style="opacity:0.149" fill="#4682b4" d="M 45.5,262.5 C 45.9382,262.435 46.2716,262.601 46.5,263C 45.5399,264.419 44.7065,265.919 44,267.5C 43.31,268.738 42.81,268.738 42.5,267.5C 43.2632,265.632 44.2632,263.965 45.5,262.5 Z"/>
  </g>
  <g>
    <path style="opacity:0.398" fill="#4682b4" d="M 219.5,264.5 C 218.5,266.5 217.5,268.5 216.5,270.5C 215.957,270.44 215.624,270.107 215.5,269.5C 216.154,267.142 217.487,265.475 219.5,264.5 Z"/>
  </g>
  <g>
    <path style="opacity:0.149" fill="#4682b4" d="M 388.5,262.5 C 388.938,262.435 389.272,262.601 389.5,263C 387,267.5 384.5,272 382,276.5C 381.31,277.738 380.81,277.738 380.5,276.5C 382.803,271.554 385.469,266.887 388.5,262.5 Z"/>
  </g>
  <g>
    <path style="opacity:0.137" fill="#4682b4" d="M 545.5,264.5 C 545.938,264.435 546.272,264.601 546.5,265C 545.54,266.419 544.707,267.919 544,269.5C 543.31,270.738 542.81,270.738 542.5,269.5C 543.263,267.632 544.263,265.965 545.5,264.5 Z"/>
  </g>
  <g>
    <path style="opacity:0.406" fill="#4682b4" d="M 62.5,266.5 C 61.5,268.5 60.5,270.5 59.5,272.5C 58.9569,272.44 58.6236,272.107 58.5,271.5C 59.1539,269.142 60.4872,267.475 62.5,266.5 Z"/>
  </g>
  <g>
    <path style="opacity:0.251" fill="#4682b4" d="M 565.5,263.5 C 563.754,267.327 561.754,270.993 559.5,274.5C 558.957,274.44 558.624,274.107 558.5,273.5C 560.386,269.683 562.719,266.35 565.5,263.5 Z"/>
  </g>
  <g>
    <path style="opacity:0.406" fill="#4682b4" d="M 520.5,269.5 C 519.5,271.5 518.5,273.5 517.5,275.5C 516.957,275.44 516.624,275.107 516.5,274.5C 517.154,272.142 518.487,270.475 520.5,269.5 Z"/>
  </g>
  <g>
    <path style="opacity:0.149" fill="#4682b4" d="M 541.5,271.5 C 541.938,271.435 542.272,271.601 542.5,272C 541.54,273.419 540.707,274.919 540,276.5C 539.31,277.738 538.81,277.738 538.5,276.5C 539.263,274.632 540.263,272.965 541.5,271.5 Z"/>
  </g>
  <g>
    <path style="opacity:0.129" fill="#4682b4" d="M 229.5,272.5 C 229.938,272.435 230.272,272.601 230.5,273C 227.954,276.59 225.787,280.423 224,284.5C 223.31,285.738 222.81,285.738 222.5,284.5C 224.344,280.136 226.677,276.136 229.5,272.5 Z"/>
  </g>
  <g>
    <path style="opacity:0.251" fill="#4682b4" d="M 215.5,271.5 C 213.754,275.327 211.754,278.993 209.5,282.5C 208.957,282.44 208.624,282.107 208.5,281.5C 210.386,277.683 212.719,274.35 215.5,271.5 Z"/>
  </g>
  <g>
    <path style="opacity:0.129" fill="#4682b4" d="M 38.5,274.5 C 38.9382,274.435 39.2716,274.601 39.5,275C 36.9536,278.59 34.7869,282.423 33,286.5C 32.31,287.738 31.81,287.738 31.5,286.5C 33.3437,282.136 35.677,278.136 38.5,274.5 Z"/>
  </g>
  <g>
    <path style="opacity:0.406" fill="#4682b4" d="M 558.5,275.5 C 557.5,277.5 556.5,279.5 555.5,281.5C 554.957,281.44 554.624,281.107 554.5,280.5C 555.154,278.142 556.487,276.475 558.5,275.5 Z"/>
  </g>
  <g>
    <path style="opacity:0.149" fill="#4682b4" d="M 79.5,275.5 C 79.9382,275.435 80.2716,275.601 80.5,276C 79.5399,277.419 78.7065,278.919 78,280.5C 77.31,281.738 76.81,281.738 76.5,280.5C 77.2632,278.632 78.2632,276.965 79.5,275.5 Z"/>
  </g>
  <g>
    <path style="opacity:0.398" fill="#4682b4" d="M 516.5,276.5 C 515.5,278.5 514.5,280.5 513.5,282.5C 512.957,282.44 512.624,282.107 512.5,281.5C 513.154,279.142 514.487,277.475 516.5,276.5 Z"/>
  </g>
  <g>
    <path style="opacity:0.406" fill="#4682b4" d="M 208.5,283.5 C 207.5,285.5 206.5,287.5 205.5,289.5C 204.957,289.44 204.624,289.107 204.5,288.5C 205.154,286.142 206.487,284.475 208.5,283.5 Z"/>
  </g>
  <g>
    <path style="opacity:0.129" fill="#4682b4" d="M 534.5,283.5 C 534.938,283.435 535.272,283.601 535.5,284C 532.954,287.59 530.787,291.423 529,295.5C 528.31,296.738 527.81,296.738 527.5,295.5C 529.344,291.136 531.677,287.136 534.5,283.5 Z"/>
  </g>
  <g>
    <path style="opacity:0.427" fill="#4682b4" d="M 51.5,285.5 C 50.5,287.5 49.5,289.5 48.5,291.5C 47.9569,291.44 47.6236,291.107 47.5,290.5C 48.1539,288.142 49.4872,286.475 51.5,285.5 Z"/>
  </g>
  <g>
    <path style="opacity:0.129" fill="#4682b4" d="M 72.5,287.5 C 72.9382,287.435 73.2716,287.601 73.5,288C 70.9536,291.59 68.7869,295.423 67,299.5C 66.31,300.738 65.81,300.738 65.5,299.5C 67.3437,295.136 69.677,291.136 72.5,287.5 Z"/>
  </g>
  <g>
    <path style="opacity:0.427" fill="#4682b4" d="M 509.5,288.5 C 508.5,290.5 507.5,292.5 506.5,294.5C 505.957,294.44 505.624,294.107 505.5,293.5C 506.154,291.142 507.487,289.475 509.5,288.5 Z"/>
  </g>
  <g>
    <path style="opacity:0.398" fill="#4682b4" d="M 204.5,290.5 C 203.5,292.5 202.5,294.5 201.5,296.5C 200.957,296.44 200.624,296.107 200.5,295.5C 201.154,293.142 202.487,291.475 204.5,290.5 Z"/>
  </g>
  <g>
    <path style="opacity:0.086" fill="#4682b4" d="M 221.5,286.5 C 221.938,286.435 222.272,286.601 222.5,287C 220.288,289.921 218.455,293.088 217,296.5C 216.31,297.738 215.81,297.738 215.5,296.5C 217.012,292.799 219.012,289.466 221.5,286.5 Z"/>
  </g>
  <g>
    <path style="opacity:0.086" fill="#4682b4" d="M 30.5,288.5 C 30.9382,288.435 31.2716,288.601 31.5,289C 29.2879,291.921 27.4545,295.088 26,298.5C 25.31,299.738 24.81,299.738 24.5,298.5C 26.0116,294.799 28.0116,291.466 30.5,288.5 Z"/>
  </g>
  <g>
    <path style="opacity:0.398" fill="#4682b4" d="M 47.5,292.5 C 46.5,294.5 45.5,296.5 44.5,298.5C 43.9569,298.44 43.6236,298.107 43.5,297.5C 44.1539,295.142 45.4872,293.475 47.5,292.5 Z"/>
  </g>
  <g>
    <path style="opacity:0.427" fill="#4682b4" d="M 547.5,294.5 C 546.5,296.5 545.5,298.5 544.5,300.5C 543.957,300.44 543.624,300.107 543.5,299.5C 544.154,297.142 545.487,295.475 547.5,294.5 Z"/>
  </g>
  <g>
    <path style="opacity:0.406" fill="#4682b4" d="M 361.5,296.5 C 360.5,298.5 359.5,300.5 358.5,302.5C 357.957,302.44 357.624,302.107 357.5,301.5C 358.154,299.142 359.487,297.475 361.5,296.5 Z"/>
  </g>
  <g>
    <path style="opacity:0.129" fill="#4682b4" d="M 214.5,298.5 C 214.938,298.435 215.272,298.601 215.5,299C 213.5,302.333 211.5,305.667 209.5,309C 257.499,309.5 305.499,309.667 353.5,309.5C 353.5,309.833 353.5,310.167 353.5,310.5C 305.167,310.5 256.833,310.5 208.5,310.5C 209.46,305.914 211.46,301.914 214.5,298.5 Z"/>
  </g>
  <g>
    <path style="opacity:0.251" fill="#4682b4" d="M 200.5,297.5 C 198.754,301.327 196.754,304.993 194.5,308.5C 193.957,308.44 193.624,308.107 193.5,307.5C 195.386,303.683 197.719,300.35 200.5,297.5 Z"/>
  </g>
  <g>
    <path style="opacity:0.086" fill="#4682b4" d="M 526.5,297.5 C 526.938,297.435 527.272,297.601 527.5,298C 525.288,300.921 523.455,304.088 522,307.5C 521.31,308.738 520.81,308.738 520.5,307.5C 522.012,303.799 524.012,300.466 526.5,297.5 Z"/>
  </g>
  <g>
    <path style="opacity:0.398" fill="#4682b4" d="M 543.5,301.5 C 542.5,303.5 541.5,305.5 540.5,307.5C 539.957,307.44 539.624,307.107 539.5,306.5C 540.154,304.142 541.487,302.475 543.5,301.5 Z"/>
  </g>
  <g>
    <path style="opacity:0.392" fill="#4682b4" d="M 357.5,303.5 C 356.404,306.032 355.071,308.365 353.5,310.5C 353.5,310.167 353.5,309.833 353.5,309.5C 353.87,306.733 355.204,304.733 357.5,303.5 Z"/>
  </g>
  <g>
    <path style="opacity:0.141" fill="#4682b4" d="M 40.5,304.5 C 38.1761,307.475 37.3427,310.808 38,314.5C 40.7297,319.058 43.2297,323.725 45.5,328.5C 45.19,329.738 44.69,329.738 44,328.5C 41.6667,324.167 39.3333,319.833 37,315.5C 35.6633,310.838 36.83,307.171 40.5,304.5 Z"/>
  </g>
  <g>
    <path style="opacity:0.995" fill="#4682b4" d="M 194.5,318.5 C 204.39,336.608 214.556,354.608 225,372.5C 225.69,373.738 226.19,373.738 226.5,372.5C 227.338,372.842 227.672,373.508 227.5,374.5C 227.062,374.435 226.728,374.601 226.5,375C 231.379,382.589 235.879,390.422 240,398.5C 240.69,399.738 241.19,399.738 241.5,398.5C 242.338,398.842 242.672,399.508 242.5,400.5C 242.062,400.435 241.728,400.601 241.5,401C 246.379,408.589 250.879,416.422 255,424.5C 255.69,425.738 256.19,425.738 256.5,424.5C 257.338,424.842 257.672,425.508 257.5,426.5C 257.062,426.435 256.728,426.601 256.5,427C 258.417,429.498 260.084,432.165 261.5,435C 217.833,435.667 174.167,435.667 130.5,435C 124.707,425.248 119.04,415.415 113.5,405.5C 113.043,404.702 112.376,404.369 111.5,404.5C 110.833,404.5 110.5,404.167 110.5,403.5C 111.465,402.279 111.298,400.946 110,399.5C 102.3,386.629 94.8003,373.629 87.5,360.5C 87.0431,359.702 86.3764,359.369 85.5,359.5C 84.8333,359.5 84.5,359.167 84.5,358.5C 85.4646,357.279 85.298,355.946 84,354.5C 77.1667,342.833 70.3333,331.167 63.5,319.5C 107.162,318.5 150.828,318.167 194.5,318.5 Z"/>
  </g>
  <g>
    <path style="opacity:0.995" fill="#4682b4" d="M 351.5,318.5 C 373.072,357.407 395.072,396.073 417.5,434.5C 371.336,435.499 325.003,435.832 278.5,435.5C 268.865,417.582 258.532,400.249 247.5,383.5C 246.833,383.5 246.5,383.167 246.5,382.5C 247.465,381.279 247.298,379.946 246,378.5C 234.374,358.749 222.874,338.915 211.5,319C 258.165,318.5 304.832,318.333 351.5,318.5 Z"/>
  </g>
  <g>
    <path style="opacity:0.398" fill="#4682b4" d="M 490.5,317.5 C 489.5,319.5 488.5,321.5 487.5,323.5C 486.957,323.44 486.624,323.107 486.5,322.5C 487.154,320.142 488.487,318.475 490.5,317.5 Z"/>
  </g>
  <g>
    <path style="opacity:0.408" fill="#4682b4" d="M 20.5,307.5 C 21.2011,311.727 22.0344,316.06 23,320.5C 27.2467,328.662 31.7467,336.662 36.5,344.5C 36.3764,345.107 36.0431,345.44 35.5,345.5C 30.7587,337.689 26.2587,329.689 22,321.5C 20.6908,316.934 20.1908,312.267 20.5,307.5 Z"/>
  </g>
  <g>
    <path style="opacity:0.212" fill="#4682b4" d="M 379.5,278.5 C 373.79,290.891 367.124,303.224 359.5,315.5C 380.828,353.494 402.662,391.161 425,428.5C 425.417,427.244 426.25,426.577 427.5,426.5C 426.189,431.095 424.355,431.428 422,427.5C 401,390.833 380,354.167 359,317.5C 358.333,316.167 358.333,314.833 359,313.5C 365.86,301.77 372.693,290.104 379.5,278.5 Z"/>
  </g>
  <g>
    <path style="opacity:0.995" fill="#4682b4" d="M 500.5,325.5 C 501.75,325.093 502.917,325.759 504,327.5C 521.586,357.671 538.92,388.004 556,418.5C 556.69,419.738 557.19,419.738 557.5,418.5C 558.338,418.842 558.672,419.508 558.5,420.5C 558.062,420.435 557.728,420.601 557.5,421C 562.923,429.032 567.256,437.199 570.5,445.5C 570.5,446.167 570.167,446.5 569.5,446.5C 567.487,447.475 566.154,449.142 565.5,451.5C 565.624,452.107 565.957,452.44 566.5,452.5C 566.5,453.167 566.167,453.5 565.5,453.5C 563.487,454.475 562.154,456.142 561.5,458.5C 561.624,459.107 561.957,459.44 562.5,459.5C 562.5,460.167 562.167,460.5 561.5,460.5C 558.719,463.35 556.386,466.683 554.5,470.5C 554.624,471.107 554.957,471.44 555.5,471.5C 555.5,472.167 555.167,472.5 554.5,472.5C 552.487,473.475 551.154,475.142 550.5,477.5C 550.624,478.107 550.957,478.44 551.5,478.5C 551.5,479.167 551.167,479.5 550.5,479.5C 548.487,480.475 547.154,482.142 546.5,484.5C 546.624,485.107 546.957,485.44 547.5,485.5C 546.154,487.537 544.82,489.537 543.5,491.5C 541.487,492.475 540.154,494.142 539.5,496.5C 539.624,497.107 539.957,497.44 540.5,497.5C 540.5,498.167 540.167,498.5 539.5,498.5C 537.487,499.475 536.154,501.142 535.5,503.5C 535.624,504.107 535.957,504.44 536.5,504.5C 536.5,505.167 536.167,505.5 535.5,505.5C 533.487,506.475 532.154,508.142 531.5,510.5C 531.624,511.107 531.957,511.44 532.5,511.5C 531.154,513.537 529.82,515.537 528.5,517.5C 525.384,521.024 522.717,525.024 520.5,529.5C 520.624,530.107 520.957,530.44 521.5,530.5C 521.5,531.167 521.167,531.5 520.5,531.5C 518.487,532.475 517.154,534.142 516.5,536.5C 516.624,537.107 516.957,537.44 517.5,537.5C 516.154,539.537 514.82,541.537 513.5,543.5C 510.384,547.024 507.717,551.024 505.5,555.5C 505.624,556.107 505.957,556.44 506.5,556.5C 506.5,557.167 506.167,557.5 505.5,557.5C 503.743,558.292 502.409,559.625 501.5,561.5C 500.914,561.291 500.414,560.957 500,560.5C 477.636,521.332 455.136,482.332 432.5,443.5C 432.328,442.508 432.662,441.842 433.5,441.5C 433.81,442.738 434.31,442.738 435,441.5C 435.707,439.919 436.54,438.419 437.5,437C 437.272,436.601 436.938,436.435 436.5,436.5C 436.328,435.508 436.662,434.842 437.5,434.5C 437.81,435.738 438.31,435.738 439,434.5C 439.707,432.919 440.54,431.419 441.5,430C 441.272,429.601 440.938,429.435 440.5,429.5C 440.328,428.508 440.662,427.842 441.5,427.5C 441.81,428.738 442.31,428.738 443,427.5C 444.455,424.088 446.288,420.921 448.5,418C 448.272,417.601 447.938,417.435 447.5,417.5C 447.328,416.508 447.662,415.842 448.5,415.5C 448.81,416.738 449.31,416.738 450,415.5C 451.787,411.423 453.954,407.59 456.5,404C 456.272,403.601 455.938,403.435 455.5,403.5C 456.584,400.996 457.917,398.663 459.5,396.5C 459.81,397.738 460.31,397.738 461,396.5C 461.707,394.919 462.54,393.419 463.5,392C 463.272,391.601 462.938,391.435 462.5,391.5C 462.328,390.508 462.662,389.842 463.5,389.5C 463.81,390.738 464.31,390.738 465,389.5C 465.707,387.919 466.54,386.419 467.5,385C 467.272,384.601 466.938,384.435 466.5,384.5C 466.328,383.508 466.662,382.842 467.5,382.5C 467.81,383.738 468.31,383.738 469,382.5C 470.455,379.088 472.288,375.921 474.5,373C 474.272,372.601 473.938,372.435 473.5,372.5C 473.328,371.508 473.662,370.842 474.5,370.5C 474.81,371.738 475.31,371.738 476,370.5C 477.787,366.423 479.954,362.59 482.5,359C 482.272,358.601 481.938,358.435 481.5,358.5C 482.584,355.996 483.917,353.663 485.5,351.5C 485.81,352.738 486.31,352.738 487,351.5C 487.707,349.919 488.54,348.419 489.5,347C 489.272,346.601 488.938,346.435 488.5,346.5C 488.328,345.508 488.662,344.842 489.5,344.5C 489.81,345.738 490.31,345.738 491,344.5C 491.707,342.919 492.54,341.419 493.5,340C 493.272,339.601 492.938,339.435 492.5,339.5C 492.328,338.508 492.662,337.842 493.5,337.5C 493.81,338.738 494.31,338.738 495,337.5C 495.707,335.919 496.54,334.419 497.5,333C 497.272,332.601 496.938,332.435 496.5,332.5C 497.584,329.996 498.917,327.663 500.5,325.5 Z"/>
  </g>
  <g>
    <path style="opacity:0.384" fill="#4682b4" d="M 194.5,317.5 C 194.5,317.833 194.5,318.167 194.5,318.5C 150.828,318.167 107.162,318.5 63.5,319.5C 70.3333,331.167 77.1667,342.833 84,354.5C 85.298,355.946 85.4646,357.279 84.5,358.5C 76.8451,345.194 69.1784,331.861 61.5,318.5C 105.828,317.5 150.162,317.167 194.5,317.5 Z"/>
  </g>
  <g>
    <path style="opacity:0.427" fill="#4682b4" d="M 483.5,329.5 C 482.5,331.5 481.5,333.5 480.5,335.5C 479.957,335.44 479.624,335.107 479.5,334.5C 480.154,332.142 481.487,330.475 483.5,329.5 Z"/>
  </g>
  <g>
    <path style="opacity:0.141" fill="#4682b4" d="M 194.5,317.5 C 205.404,335.634 216.071,353.967 226.5,372.5C 226.19,373.738 225.69,373.738 225,372.5C 214.556,354.608 204.39,336.608 194.5,318.5C 194.5,318.167 194.5,317.833 194.5,317.5 Z"/>
  </g>
  <g>
    <path style="opacity:0.157" fill="#4682b4" d="M 557.5,418.5 C 557.19,419.738 556.69,419.738 556,418.5C 538.92,388.004 521.586,357.671 504,327.5C 502.917,325.759 501.75,325.093 500.5,325.5C 500.811,324.522 501.478,323.855 502.5,323.5C 521.26,354.925 539.594,386.592 557.5,418.5 Z"/>
  </g>
  <g>
    <path style="opacity:0.129" fill="#4682b4" d="M 496.5,332.5 C 496.938,332.435 497.272,332.601 497.5,333C 496.54,334.419 495.707,335.919 495,337.5C 494.31,338.738 493.81,338.738 493.5,337.5C 494.263,335.632 495.263,333.965 496.5,332.5 Z"/>
  </g>
  <g>
    <path style="opacity:0.398" fill="#4682b4" d="M 479.5,336.5 C 478.5,338.5 477.5,340.5 476.5,342.5C 475.957,342.44 475.624,342.107 475.5,341.5C 476.154,339.142 477.487,337.475 479.5,336.5 Z"/>
  </g>
  <g>
    <path style="opacity:0.157" fill="#4682b4" d="M 46.5,330.5 C 55.197,344.552 63.5303,358.885 71.5,373.5C 71.19,374.738 70.69,374.738 70,373.5C 61.9597,359.252 53.793,345.085 45.5,331C 45.7284,330.601 46.0618,330.435 46.5,330.5 Z"/>
  </g>
  <g>
    <path style="opacity:0.137" fill="#4682b4" d="M 492.5,339.5 C 492.938,339.435 493.272,339.601 493.5,340C 492.54,341.419 491.707,342.919 491,344.5C 490.31,345.738 489.81,345.738 489.5,344.5C 490.263,342.632 491.263,340.965 492.5,339.5 Z"/>
  </g>
  <g>
    <path style="opacity:0.149" fill="#4682b4" d="M 488.5,346.5 C 488.938,346.435 489.272,346.601 489.5,347C 488.54,348.419 487.707,349.919 487,351.5C 486.31,352.738 485.81,352.738 485.5,351.5C 486.263,349.632 487.263,347.965 488.5,346.5 Z"/>
  </g>
  <g>
    <path style="opacity:0.427" fill="#4682b4" d="M 472.5,348.5 C 471.5,350.5 470.5,352.5 469.5,354.5C 468.957,354.44 468.624,354.107 468.5,353.5C 469.154,351.142 470.487,349.475 472.5,348.5 Z"/>
  </g>
  <g>
    <path style="opacity:0.384" fill="#4682b4" d="M 351.5,317.5 C 351.5,317.833 351.5,318.167 351.5,318.5C 304.832,318.333 258.165,318.5 211.5,319C 222.874,338.915 234.374,358.749 246,378.5C 247.298,379.946 247.465,381.279 246.5,382.5C 235.931,363.697 225.098,345.03 214,326.5C 212.259,323.691 211.092,320.691 210.5,317.5C 257.5,317.5 304.5,317.5 351.5,317.5 Z"/>
  </g>
  <g>
    <path style="opacity:0.141" fill="#4682b4" d="M 539.5,308.5 C 538.972,309.721 538.305,310.887 537.5,312C 557.224,345.282 576.557,378.782 595.5,412.5C 595.19,413.738 594.69,413.738 594,412.5C 575.586,380.003 556.919,347.67 538,315.5C 535.755,312.43 536.255,310.096 539.5,308.5 Z"/>
  </g>
  <g>
    <path style="opacity:0.406" fill="#4682b4" d="M 468.5,355.5 C 467.5,357.5 466.5,359.5 465.5,361.5C 464.957,361.44 464.624,361.107 464.5,360.5C 465.154,358.142 466.487,356.475 468.5,355.5 Z"/>
  </g>
  <g>
    <path style="opacity:0.129" fill="#4682b4" d="M 481.5,358.5 C 481.938,358.435 482.272,358.601 482.5,359C 479.954,362.59 477.787,366.423 476,370.5C 475.31,371.738 474.81,371.738 474.5,370.5C 476.344,366.136 478.677,362.136 481.5,358.5 Z"/>
  </g>
  <g>
    <path style="opacity:0.141" fill="#4682b4" d="M 351.5,317.5 C 374.225,356.237 396.558,395.237 418.5,434.5C 418.167,434.5 417.833,434.5 417.5,434.5C 395.072,396.073 373.072,357.407 351.5,318.5C 351.5,318.167 351.5,317.833 351.5,317.5 Z"/>
  </g>
  <g>
    <path style="opacity:0.398" fill="#4682b4" d="M 464.5,362.5 C 463.5,364.5 462.5,366.5 461.5,368.5C 460.957,368.44 460.624,368.107 460.5,367.5C 461.154,365.142 462.487,363.475 464.5,362.5 Z"/>
  </g>
  <g>
    <path style="opacity:0.353" fill="#4682b4" d="M 36.5,346.5 C 37.3764,346.369 38.0431,346.702 38.5,347.5C 45.8003,360.629 53.3003,373.629 61,386.5C 62.298,387.946 62.4646,389.279 61.5,390.5C 53.1667,375.833 44.8333,361.167 36.5,346.5 Z"/>
  </g>
  <g>
    <path style="opacity:0.427" fill="#4682b4" d="M 457.5,374.5 C 456.5,376.5 455.5,378.5 454.5,380.5C 453.957,380.44 453.624,380.107 453.5,379.5C 454.154,377.142 455.487,375.475 457.5,374.5 Z"/>
  </g>
  <g>
    <path style="opacity:0.086" fill="#4682b4" d="M 473.5,372.5 C 473.938,372.435 474.272,372.601 474.5,373C 472.288,375.921 470.455,379.088 469,382.5C 468.31,383.738 467.81,383.738 467.5,382.5C 469.012,378.799 471.012,375.466 473.5,372.5 Z"/>
  </g>
  <g>
    <path style="opacity:0.353" fill="#4682b4" d="M 85.5,359.5 C 86.3764,359.369 87.0431,359.702 87.5,360.5C 94.8003,373.629 102.3,386.629 110,399.5C 111.298,400.946 111.465,402.279 110.5,403.5C 102.167,388.833 93.8333,374.167 85.5,359.5 Z"/>
  </g>
  <g>
    <path style="opacity:0.398" fill="#4682b4" d="M 453.5,381.5 C 452.5,383.5 451.5,385.5 450.5,387.5C 449.957,387.44 449.624,387.107 449.5,386.5C 450.154,384.142 451.487,382.475 453.5,381.5 Z"/>
  </g>
  <g>
    <path style="opacity:0.141" fill="#4682b4" d="M 227.5,374.5 C 232.656,382.136 237.323,390.136 241.5,398.5C 241.19,399.738 240.69,399.738 240,398.5C 235.879,390.422 231.379,382.589 226.5,375C 226.728,374.601 227.062,374.435 227.5,374.5 Z"/>
  </g>
  <g>
    <path style="opacity:0.157" fill="#4682b4" d="M 72.5,375.5 C 81.197,389.552 89.5303,403.885 97.5,418.5C 97.19,419.738 96.69,419.738 96,418.5C 87.9597,404.252 79.793,390.085 71.5,376C 71.7284,375.601 72.0618,375.435 72.5,375.5 Z"/>
  </g>
  <g>
    <path style="opacity:0.137" fill="#4682b4" d="M 466.5,384.5 C 466.938,384.435 467.272,384.601 467.5,385C 466.54,386.419 465.707,387.919 465,389.5C 464.31,390.738 463.81,390.738 463.5,389.5C 464.263,387.632 465.263,385.965 466.5,384.5 Z"/>
  </g>
  <g>
    <path style="opacity:0.149" fill="#4682b4" d="M 462.5,391.5 C 462.938,391.435 463.272,391.601 463.5,392C 462.54,393.419 461.707,394.919 461,396.5C 460.31,397.738 459.81,397.738 459.5,396.5C 460.263,394.632 461.263,392.965 462.5,391.5 Z"/>
  </g>
  <g>
    <path style="opacity:0.406" fill="#4682b4" d="M 446.5,393.5 C 444.421,397.993 442.088,402.326 439.5,406.5C 438.957,406.44 438.624,406.107 438.5,405.5C 440.717,401.024 443.384,397.024 446.5,393.5 Z"/>
  </g>
  <g>
    <path style="opacity:0.353" fill="#4682b4" d="M 247.5,383.5 C 258.532,400.249 268.865,417.582 278.5,435.5C 278.5,435.833 278.5,436.167 278.5,436.5C 267.803,419.115 257.47,401.448 247.5,383.5 Z"/>
  </g>
  <g>
    <path style="opacity:0.129" fill="#4682b4" d="M 455.5,403.5 C 455.938,403.435 456.272,403.601 456.5,404C 453.954,407.59 451.787,411.423 450,415.5C 449.31,416.738 448.81,416.738 448.5,415.5C 450.344,411.136 452.677,407.136 455.5,403.5 Z"/>
  </g>
  <g>
    <path style="opacity:0.353" fill="#4682b4" d="M 519.5,309.5 C 519.771,310.552 519.938,311.885 520,313.5C 542.167,351.833 564.333,390.167 586.5,428.5C 586.376,429.107 586.043,429.44 585.5,429.5C 563.345,391.194 541.178,352.861 519,314.5C 518.22,312.613 518.387,310.946 519.5,309.5 Z"/>
  </g>
  <g>
    <path style="opacity:0.141" fill="#4682b4" d="M 242.5,400.5 C 247.656,408.136 252.323,416.136 256.5,424.5C 256.19,425.738 255.69,425.738 255,424.5C 250.879,416.422 246.379,408.589 241.5,401C 241.728,400.601 242.062,400.435 242.5,400.5 Z"/>
  </g>
  <g>
    <path style="opacity:0.353" fill="#4682b4" d="M 62.5,391.5 C 63.3764,391.369 64.0431,391.702 64.5,392.5C 71.8003,405.629 79.3003,418.629 87,431.5C 88.298,432.946 88.4646,434.279 87.5,435.5C 79.1667,420.833 70.8333,406.167 62.5,391.5 Z"/>
  </g>
  <g>
    <path style="opacity:0.406" fill="#4682b4" d="M 431.5,419.5 C 430.5,421.5 429.5,423.5 428.5,425.5C 427.957,425.44 427.624,425.107 427.5,424.5C 428.154,422.142 429.487,420.475 431.5,419.5 Z"/>
  </g>
  <g>
    <path style="opacity:0.086" fill="#4682b4" d="M 447.5,417.5 C 447.938,417.435 448.272,417.601 448.5,418C 446.288,420.921 444.455,424.088 443,427.5C 442.31,428.738 441.81,428.738 441.5,427.5C 443.012,423.799 445.012,420.466 447.5,417.5 Z"/>
  </g>
  <g>
    <path style="opacity:0.157" fill="#4682b4" d="M 596.5,414.5 C 601.815,421.462 605.815,429.128 608.5,437.5C 604.806,430.364 600.473,422.864 595.5,415C 595.728,414.601 596.062,414.435 596.5,414.5 Z"/>
  </g>
  <g>
    <path style="opacity:0.157" fill="#4682b4" d="M 558.5,420.5 C 563.144,427.106 567.311,434.106 571,441.5C 571.579,442.928 571.412,444.262 570.5,445.5C 567.256,437.199 562.923,429.032 557.5,421C 557.728,420.601 558.062,420.435 558.5,420.5 Z"/>
  </g>
  <g>
    <path style="opacity:0.137" fill="#4682b4" d="M 440.5,429.5 C 440.938,429.435 441.272,429.601 441.5,430C 440.54,431.419 439.707,432.919 439,434.5C 438.31,435.738 437.81,435.738 437.5,434.5C 438.263,432.632 439.263,430.965 440.5,429.5 Z"/>
  </g>
  <g>
    <path style="opacity:0.341" fill="#4682b4" d="M 111.5,404.5 C 112.376,404.369 113.043,404.702 113.5,405.5C 119.04,415.415 124.707,425.248 130.5,435C 174.167,435.667 217.833,435.667 261.5,435C 260.084,432.165 258.417,429.498 256.5,427C 256.728,426.601 257.062,426.435 257.5,426.5C 260.207,429.247 261.873,432.58 262.5,436.5C 218.165,436.667 173.832,436.5 129.5,436C 123.362,425.554 117.362,415.054 111.5,404.5 Z"/>
  </g>
  <g>
    <path style="opacity:0.51" fill="#4682b4" d="M 417.5,434.5 C 417.833,434.5 418.167,434.5 418.5,434.5C 372.179,436.495 325.512,437.162 278.5,436.5C 278.5,436.167 278.5,435.833 278.5,435.5C 325.003,435.832 371.336,435.499 417.5,434.5 Z"/>
  </g>
  <g>
    <path style="opacity:0.149" fill="#4682b4" d="M 436.5,436.5 C 436.938,436.435 437.272,436.601 437.5,437C 436.54,438.419 435.707,439.919 435,441.5C 434.31,442.738 433.81,442.738 433.5,441.5C 434.263,439.632 435.263,437.965 436.5,436.5 Z"/>
  </g>
  <g>
    <path style="opacity:0.263" fill="#4682b4" d="M 88.5,436.5 C 89.3764,436.369 90.0431,436.702 90.5,437.5C 94.7997,445.628 99.2997,453.628 104,461.5C 107.079,464.385 109.579,467.052 111.5,469.5C 108.25,467.757 105.416,465.423 103,462.5C 97.901,453.967 93.0677,445.301 88.5,436.5 Z"/>
  </g>
  <g>
    <path style="opacity:0.141" fill="#4682b4" d="M 98.5,420.5 C 105.225,431.237 111.558,442.237 117.5,453.5C 117.167,453.5 116.833,453.5 116.5,453.5C 110.052,442.776 103.719,431.943 97.5,421C 97.7284,420.601 98.0618,420.435 98.5,420.5 Z"/>
  </g>
  <g>
    <path style="opacity:0.298" fill="#4682b4" d="M 432.5,443.5 C 455.136,482.332 477.636,521.332 500,560.5C 500.414,560.957 500.914,561.291 501.5,561.5C 502.409,559.625 503.743,558.292 505.5,557.5C 504.639,559.386 503.639,561.22 502.5,563C 501.004,563.507 499.837,563.007 499,561.5C 476.132,522.49 453.966,483.156 432.5,443.5 Z"/>
  </g>
  <g>
    <path style="opacity:0.427" fill="#4682b4" d="M 569.5,446.5 C 568.5,448.5 567.5,450.5 566.5,452.5C 565.957,452.44 565.624,452.107 565.5,451.5C 566.154,449.142 567.487,447.475 569.5,446.5 Z"/>
  </g>
  <g>
    <path style="opacity:0.11" fill="#4682b4" d="M 586.5,430.5 C 588.776,432.331 590.609,434.664 592,437.5C 593.457,440.366 593.79,443.366 593,446.5C 590.268,450.241 587.934,454.241 586,458.5C 585.31,459.738 584.81,459.738 584.5,458.5C 587.404,453.437 590.071,448.27 592.5,443C 590.645,438.789 588.645,434.623 586.5,430.5 Z"/>
  </g>
  <g>
    <path style="opacity:0.994" fill="#4682b4" d="M 426.5,450.5 C 448.362,489.054 470.362,527.554 492.5,566C 446.792,566.823 401.126,566.656 355.5,565.5C 354.833,565.5 354.5,565.167 354.5,564.5C 355.465,563.279 355.298,561.946 354,560.5C 342.581,541.33 331.414,521.997 320.5,502.5C 320.043,501.702 319.376,501.369 318.5,501.5C 317.833,501.5 317.5,501.167 317.5,500.5C 318.465,499.279 318.298,497.946 317,496.5C 308.04,481.415 299.207,466.249 290.5,451C 335.832,450.5 381.165,450.333 426.5,450.5 Z"/>
  </g>
  <g>
    <path style="opacity:0.18" fill="#4682b4" d="M 608.5,448.5 C 607.724,452.052 606.391,455.386 604.5,458.5C 603.957,458.44 603.624,458.107 603.5,457.5C 604.941,454.276 606.608,451.276 608.5,448.5 Z"/>
  </g>
  <g>
    <path style="opacity:0.161" fill="#4682b4" d="M 116.5,453.5 C 116.833,453.5 117.167,453.5 117.5,453.5C 118.473,453.987 119.473,454.487 120.5,455C 170.5,455.333 220.5,455.667 270.5,456C 273.396,460.723 276.062,465.557 278.5,470.5C 278.19,471.738 277.69,471.738 277,470.5C 274.5,466 272,461.5 269.5,457C 219.5,456.667 169.5,456.333 119.5,456C 118.058,455.623 117.058,454.79 116.5,453.5 Z"/>
  </g>
  <g>
    <path style="opacity:0.398" fill="#4682b4" d="M 565.5,453.5 C 564.5,455.5 563.5,457.5 562.5,459.5C 561.957,459.44 561.624,459.107 561.5,458.5C 562.154,456.142 563.487,454.475 565.5,453.5 Z"/>
  </g>
  <g>
    <path style="opacity:0.129" fill="#4682b4" d="M 583.5,460.5 C 583.938,460.435 584.272,460.601 584.5,461C 581.954,464.59 579.787,468.423 578,472.5C 577.31,473.738 576.81,473.738 576.5,472.5C 578.344,468.136 580.677,464.136 583.5,460.5 Z"/>
  </g>
  <g>
    <path style="opacity:0.251" fill="#4682b4" d="M 561.5,460.5 C 559.754,464.327 557.754,467.993 555.5,471.5C 554.957,471.44 554.624,471.107 554.5,470.5C 556.386,466.683 558.719,463.35 561.5,460.5 Z"/>
  </g>
  <g>
    <path style="opacity:0.278" fill="#4682b4" d="M 113.5,470.5 C 113.56,469.957 113.893,469.624 114.5,469.5C 116.487,469.868 117.487,470.534 117.5,471.5C 116.041,471.567 114.708,471.234 113.5,470.5 Z"/>
  </g>
  <g>
    <path style="opacity:0.341" fill="#4682b4" d="M 119.5,472.5 C 142.998,471.833 166.664,471.5 190.5,471.5C 214.51,471.5 238.176,472.167 261.5,473.5C 261.167,473.5 260.833,473.5 260.5,473.5C 213.67,472.501 166.67,472.168 119.5,472.5 Z"/>
  </g>
  <g>
    <path style="opacity:0.406" fill="#4682b4" d="M 596.5,471.5 C 595.5,473.5 594.5,475.5 593.5,477.5C 592.957,477.44 592.624,477.107 592.5,476.5C 593.154,474.142 594.487,472.475 596.5,471.5 Z"/>
  </g>
  <g>
    <path style="opacity:0.406" fill="#4682b4" d="M 554.5,472.5 C 553.5,474.5 552.5,476.5 551.5,478.5C 550.957,478.44 550.624,478.107 550.5,477.5C 551.154,475.142 552.487,473.475 554.5,472.5 Z"/>
  </g>
  <g>
    <path style="opacity:0.353" fill="#4682b4" d="M 426.5,449.5 C 426.5,449.833 426.5,450.167 426.5,450.5C 381.165,450.333 335.832,450.5 290.5,451C 299.207,466.249 308.04,481.415 317,496.5C 318.298,497.946 318.465,499.279 317.5,500.5C 307.373,483.911 298.04,466.911 289.5,449.5C 335.167,449.5 380.833,449.5 426.5,449.5 Z"/>
  </g>
  <g>
    <path style="opacity:0.086" fill="#4682b4" d="M 575.5,474.5 C 575.938,474.435 576.272,474.601 576.5,475C 574.288,477.921 572.455,481.088 571,484.5C 570.31,485.738 569.81,485.738 569.5,484.5C 571.012,480.799 573.012,477.466 575.5,474.5 Z"/>
  </g>
  <g>
    <path style="opacity:0.398" fill="#4682b4" d="M 592.5,478.5 C 591.5,480.5 590.5,482.5 589.5,484.5C 588.957,484.44 588.624,484.107 588.5,483.5C 589.154,481.142 590.487,479.475 592.5,478.5 Z"/>
  </g>
  <g>
    <path style="opacity:0.398" fill="#4682b4" d="M 550.5,479.5 C 549.5,481.5 548.5,483.5 547.5,485.5C 546.957,485.44 546.624,485.107 546.5,484.5C 547.154,482.142 548.487,480.475 550.5,479.5 Z"/>
  </g>
  <g>
    <path style="opacity:0.137" fill="#4682b4" d="M 568.5,486.5 C 568.938,486.435 569.272,486.601 569.5,487C 566.954,490.59 564.787,494.423 563,498.5C 562.31,499.738 561.81,499.738 561.5,498.5C 563.344,494.136 565.677,490.136 568.5,486.5 Z"/>
  </g>
  <g>
    <path style="opacity:0.251" fill="#4682b4" d="M 588.5,485.5 C 586.754,489.327 584.754,492.993 582.5,496.5C 581.957,496.44 581.624,496.107 581.5,495.5C 583.386,491.683 585.719,488.35 588.5,485.5 Z"/>
  </g>
  <g>
    <path style="opacity:0.427" fill="#4682b4" d="M 543.5,491.5 C 542.5,493.5 541.5,495.5 540.5,497.5C 539.957,497.44 539.624,497.107 539.5,496.5C 540.154,494.142 541.487,492.475 543.5,491.5 Z"/>
  </g>
  <g>
    <path style="opacity:0.141" fill="#4682b4" d="M 279.5,472.5 C 295.53,499.219 311.197,526.219 326.5,553.5C 326.19,554.738 325.69,554.738 325,553.5C 309.626,526.585 294.126,499.752 278.5,473C 278.728,472.601 279.062,472.435 279.5,472.5 Z"/>
  </g>
  <g>
    <path style="opacity:0.406" fill="#4682b4" d="M 581.5,497.5 C 580.5,499.5 579.5,501.5 578.5,503.5C 577.957,503.44 577.624,503.107 577.5,502.5C 578.154,500.142 579.487,498.475 581.5,497.5 Z"/>
  </g>
  <g>
    <path style="opacity:0.406" fill="#4682b4" d="M 539.5,498.5 C 538.5,500.5 537.5,502.5 536.5,504.5C 535.957,504.44 535.624,504.107 535.5,503.5C 536.154,501.142 537.487,499.475 539.5,498.5 Z"/>
  </g>
  <g>
    <path style="opacity:0.398" fill="#4682b4" d="M 535.5,505.5 C 534.5,507.5 533.5,509.5 532.5,511.5C 531.957,511.44 531.624,511.107 531.5,510.5C 532.154,508.142 533.487,506.475 535.5,505.5 Z"/>
  </g>
  <g>
    <path style="opacity:0.129" fill="#4682b4" d="M 557.5,505.5 C 557.938,505.435 558.272,505.601 558.5,506C 557.54,507.419 556.707,508.919 556,510.5C 555.31,511.738 554.81,511.738 554.5,510.5C 555.263,508.632 556.263,506.965 557.5,505.5 Z"/>
  </g>
  <g>
    <path style="opacity:0.137" fill="#4682b4" d="M 553.5,512.5 C 553.938,512.435 554.272,512.601 554.5,513C 553.54,514.419 552.707,515.919 552,517.5C 551.31,518.738 550.81,518.738 550.5,517.5C 551.263,515.632 552.263,513.965 553.5,512.5 Z"/>
  </g>
  <g>
    <path style="opacity:0.149" fill="#4682b4" d="M 549.5,519.5 C 549.938,519.435 550.272,519.601 550.5,520C 549.54,521.419 548.707,522.919 548,524.5C 547.31,525.738 546.81,525.738 546.5,524.5C 547.263,522.632 548.263,520.965 549.5,519.5 Z"/>
  </g>
  <g>
    <path style="opacity:0.406" fill="#4682b4" d="M 570.5,516.5 C 568.421,520.993 566.088,525.326 563.5,529.5C 562.957,529.44 562.624,529.107 562.5,528.5C 564.717,524.024 567.384,520.024 570.5,516.5 Z"/>
  </g>
  <g>
    <path style="opacity:0.406" fill="#4682b4" d="M 528.5,517.5 C 526.421,521.993 524.088,526.326 521.5,530.5C 520.957,530.44 520.624,530.107 520.5,529.5C 522.717,525.024 525.384,521.024 528.5,517.5 Z"/>
  </g>
  <g>
    <path style="opacity:0.353" fill="#4682b4" d="M 260.5,473.5 C 260.833,473.5 261.167,473.5 261.5,473.5C 279.64,504.437 297.807,535.437 316,566.5C 317.298,567.946 317.465,569.279 316.5,570.5C 297.833,538.167 279.167,505.833 260.5,473.5 Z"/>
  </g>
  <g>
    <path style="opacity:0.398" fill="#4682b4" d="M 520.5,531.5 C 519.5,533.5 518.5,535.5 517.5,537.5C 516.957,537.44 516.624,537.107 516.5,536.5C 517.154,534.142 518.487,532.475 520.5,531.5 Z"/>
  </g>
  <g>
    <path style="opacity:0.129" fill="#4682b4" d="M 542.5,531.5 C 542.938,531.435 543.272,531.601 543.5,532C 540.954,535.59 538.787,539.423 537,543.5C 536.31,544.738 535.81,544.738 535.5,543.5C 537.344,539.136 539.677,535.136 542.5,531.5 Z"/>
  </g>
  <g>
    <path style="opacity:0.353" fill="#4682b4" d="M 318.5,501.5 C 319.376,501.369 320.043,501.702 320.5,502.5C 331.414,521.997 342.581,541.33 354,560.5C 355.298,561.946 355.465,563.279 354.5,564.5C 342.247,543.663 330.247,522.663 318.5,501.5 Z"/>
  </g>
  <g>
    <path style="opacity:0.086" fill="#4682b4" d="M 534.5,545.5 C 534.938,545.435 535.272,545.601 535.5,546C 533.288,548.921 531.455,552.088 530,555.5C 529.31,556.738 528.81,556.738 528.5,555.5C 530.012,551.799 532.012,548.466 534.5,545.5 Z"/>
  </g>
  <g>
    <path style="opacity:0.398" fill="#4682b4" d="M 555.5,542.5 C 553.421,546.993 551.088,551.326 548.5,555.5C 547.957,555.44 547.624,555.107 547.5,554.5C 549.717,550.024 552.384,546.024 555.5,542.5 Z"/>
  </g>
  <g>
    <path style="opacity:0.398" fill="#4682b4" d="M 513.5,543.5 C 511.421,547.993 509.088,552.326 506.5,556.5C 505.957,556.44 505.624,556.107 505.5,555.5C 507.717,551.024 510.384,547.024 513.5,543.5 Z"/>
  </g>
  <g>
    <path style="opacity:0.129" fill="#4682b4" d="M 527.5,557.5 C 527.938,557.435 528.272,557.601 528.5,558C 525.954,561.59 523.787,565.423 522,569.5C 521.31,570.738 520.81,570.738 520.5,569.5C 522.344,565.136 524.677,561.136 527.5,557.5 Z"/>
  </g>
  <g>
    <path style="opacity:0.168" fill="#4682b4" d="M 426.5,449.5 C 448.145,485.442 469.311,521.776 490,558.5C 491.741,561.309 492.908,564.309 493.5,567.5C 447.832,567.667 402.165,567.5 356.5,567C 355.944,566.617 355.611,566.117 355.5,565.5C 401.126,566.656 446.792,566.823 492.5,566C 470.362,527.554 448.362,489.054 426.5,450.5C 426.5,450.167 426.5,449.833 426.5,449.5 Z"/>
  </g>
  <g>
    <path style="opacity:0.427" fill="#4682b4" d="M 540.5,568.5 C 539.5,570.5 538.5,572.5 537.5,574.5C 536.957,574.44 536.624,574.107 536.5,573.5C 537.154,571.142 538.487,569.475 540.5,568.5 Z"/>
  </g>
  <g>
    <path style="opacity:0.263" fill="#4682b4" d="M 317.5,571.5 C 318.376,571.369 319.043,571.702 319.5,572.5C 323.163,579.831 327.33,586.831 332,593.5C 332.692,594.437 332.525,595.103 331.5,595.5C 326.329,587.828 321.662,579.828 317.5,571.5 Z"/>
  </g>
  <g>
    <path style="opacity:0.086" fill="#4682b4" d="M 519.5,571.5 C 519.938,571.435 520.272,571.601 520.5,572C 518.288,574.921 516.455,578.088 515,581.5C 514.31,582.738 513.81,582.738 513.5,581.5C 515.012,577.799 517.012,574.466 519.5,571.5 Z"/>
  </g>
  <g>
    <path style="opacity:0.398" fill="#4682b4" d="M 536.5,575.5 C 535.5,577.5 534.5,579.5 533.5,581.5C 532.957,581.44 532.624,581.107 532.5,580.5C 533.154,578.142 534.487,576.475 536.5,575.5 Z"/>
  </g>
  <g>
    <path style="opacity:0.141" fill="#4682b4" d="M 327.5,555.5 C 333.226,564.606 338.726,573.939 344,583.5C 344.708,584.381 345.542,585.047 346.5,585.5C 345.207,586.645 344.041,586.311 343,584.5C 337.626,574.918 332.126,565.418 326.5,556C 326.728,555.601 327.062,555.435 327.5,555.5 Z"/>
  </g>
  <g>
    <path style="opacity:0.427" fill="#4682b4" d="M 532.5,582.5 C 530.671,586.828 528.338,590.828 525.5,594.5C 524.475,594.103 524.308,593.437 525,592.5C 527.298,588.851 529.798,585.518 532.5,582.5 Z"/>
  </g>
  <g>
    <path style="opacity:0.255" fill="#4682b4" d="M 341.5,601.5 C 338.669,600.921 336.336,599.588 334.5,597.5C 334.435,597.062 334.601,596.728 335,596.5C 337.251,598.377 339.751,599.877 342.5,601C 342.272,601.399 341.938,601.565 341.5,601.5 Z"/>
  </g>
</svg>
