<?xml version="1.0" standalone="no"?>
<!DOCTYPE svg PUBLIC "-//W3C//DTD SVG 20010904//EN"
 "http://www.w3.org/TR/2001/REC-SVG-20010904/DTD/svg10.dtd">
<svg version="1.0" xmlns="http://www.w3.org/2000/svg"
 width="345.684887pt" height="325.841094pt" viewBox="0 0 345.684887 325.841094"
 preserveAspectRatio="xMidYMid meet">
<metadata>
Created by potrace 1.12, written by Peter Selinger 2001-2015
</metadata>
<g transform="translate(-11.286222,350.904129) scale(0.100000,-0.100000)"
fill="#000000" stroke="none">
<path d="M2165 3494 c-69 -36 -105 -91 -105 -162 0 -46 -14 -62 -56 -62 -92 0
-204 -71 -259 -165 -39 -67 -69 -195 -62 -272 l5 -63 -142 -1 c-77 -1 -148 -3
-156 -4 -8 -1 -106 -3 -217 -4 l-203 -1 0 -48 c0 -43 -3 -50 -26 -61 -18 -8
-38 -37 -69 -104 -23 -50 -53 -101 -65 -112 -13 -11 -58 -69 -101 -130 -43
-60 -87 -121 -97 -134 l-19 -24 -7 36 c-10 53 -55 87 -115 87 -27 0 -62 -5
-79 -11 -26 -9 -34 -7 -52 11 -18 18 -30 21 -57 17 -79 -13 -125 -79 -104
-149 13 -42 35 -58 79 -58 23 0 32 -6 42 -30 7 -17 25 -41 41 -54 l29 -25 -25
-48 c-53 -101 -52 -214 1 -414 l26 -95 -52 -150 c-138 -396 -160 -465 -175
-539 -17 -84 -40 -389 -30 -406 9 -14 75 -11 75 4 0 7 6 22 14 32 13 18 15 17
29 -18 l16 -37 155 0 156 0 0 23 c0 13 -8 31 -17 39 -23 20 -108 63 -178 89
-30 11 -58 25 -61 31 -4 6 14 54 39 107 25 53 66 145 91 204 102 248 208 359
449 472 111 51 164 65 255 65 108 0 112 -19 36 -171 -18 -36 -35 -83 -39 -105
-3 -21 -13 -69 -21 -106 -9 -36 -14 -75 -12 -85 2 -13 -9 -24 -42 -39 -90 -42
-160 -153 -160 -255 0 -105 86 -219 192 -255 77 -25 188 -16 257 21 164 90
199 292 73 427 l-45 48 36 0 c78 0 59 46 -49 116 l-85 54 36 43 c50 58 103
170 115 240 8 54 0 142 -15 168 -4 5 79 9 207 9 117 0 359 3 538 7 l325 6 28
-41 c41 -63 66 -76 140 -70 34 3 78 12 97 21 29 12 142 38 146 33 1 0 -16 -46
-37 -101 -114 -289 -206 -621 -214 -769 -2 -40 -10 -74 -17 -81 -7 -6 -44 -24
-83 -40 -78 -32 -133 -64 -154 -89 -18 -22 -1 -42 48 -56 42 -11 241 -12 320
-1 71 10 91 34 91 107 0 29 -4 56 -10 59 -6 4 -10 -14 -10 -47 0 -58 -5 -70
-35 -85 -49 -26 -385 -27 -385 -2 0 14 90 68 174 105 61 27 73 30 87 18 24
-21 73 -27 113 -14 52 17 84 92 161 378 42 160 92 329 101 345 16 28 49 57 65
57 24 0 44 -60 69 -212 39 -231 85 -386 158 -530 2 -5 -1 -8 -7 -8 -20 0 -215
-101 -239 -123 -19 -18 -21 -23 -8 -35 18 -19 161 -27 291 -17 143 10 143 11
143 196 0 79 -6 180 -14 224 -15 93 -87 396 -110 470 -22 69 -72 210 -96 270
l-19 50 47 73 c41 63 51 72 77 72 59 0 126 64 155 149 18 53 14 150 -8 199
-10 23 -40 71 -65 106 -57 81 -75 131 -75 216 0 53 -5 74 -22 100 -35 50 -90
75 -170 75 -87 0 -112 -19 -150 -111 -25 -58 -27 -74 -19 -100 6 -17 11 -43
11 -58 0 -19 8 -32 30 -44 16 -9 30 -21 30 -26 0 -5 -23 -43 -52 -84 -61 -89
-106 -199 -115 -282 -5 -49 -12 -67 -39 -97 l-33 -38 -1 161 c0 88 -3 351 -7
584 l-6 423 -254 -6 -254 -6 8 22 c4 12 8 51 8 87 0 78 -21 126 -96 218 -41
51 -48 66 -39 77 7 8 23 15 36 15 15 0 28 9 38 28 8 15 33 47 55 70 49 52 53
89 16 144 -45 67 -152 97 -220 62z m0 -138 c11 -7 43 -15 72 -18 28 -3 63 -12
77 -21 l25 -17 -25 -45 c-14 -25 -33 -45 -42 -45 -9 0 -26 -9 -38 -21 -18 -17
-26 -19 -42 -10 -11 6 -34 8 -52 5 -25 -6 -36 -2 -61 22 -16 15 -29 33 -29 40
0 7 16 26 35 41 24 19 33 33 29 45 -11 36 16 49 51 24z m-18 -573 c-8 -8 -22
-13 -30 -11 -13 2 -11 11 11 48 l27 45 3 -34 c2 -20 -2 -40 -11 -48z m-453
-46 c2 -7 18 -70 35 -142 21 -85 47 -161 76 -222 25 -51 45 -103 45 -116 0
-14 9 -35 20 -48 l20 -24 -15 30 c-24 49 -20 65 19 65 18 0 39 7 47 16 17 21
24 7 39 -87 14 -88 8 -125 -9 -61 -11 39 -14 42 -44 41 -29 -1 -30 -2 -8 -8
15 -4 28 -18 35 -38 14 -40 31 -57 46 -48 14 9 7 92 -15 190 -7 33 -17 89 -21
124 l-7 64 22 -22 c42 -42 68 -24 86 59 3 18 26 37 82 70 42 25 106 73 140
108 l63 62 250 0 250 0 0 -318 c0 -175 3 -433 6 -573 l7 -254 -68 -54 -69 -54
-70 12 c-75 12 -100 5 -76 -23 11 -14 -50 -16 -581 -18 l-594 -3 -34 30 c-33
31 -33 32 -35 125 l-1 95 -70 1 c-61 1 -62 0 -12 -3 l57 -4 0 -79 c0 -44 -3
-80 -7 -80 -5 1 -30 7 -58 14 l-50 13 -3 67 c-4 84 -22 87 -22 2 l0 -63 -72
-6 c-40 -3 -75 -3 -78 0 -14 13 -11 153 5 220 14 58 16 89 9 141 -5 37 -9 114
-10 172 -1 58 -7 164 -13 235 -10 104 -9 138 1 169 10 31 10 40 0 44 -8 2 -12
32 -12 96 l0 93 345 1 c264 1 347 -2 349 -11z m382 -37 c-24 -25 -64 -67 -88
-94 l-45 -50 -22 91 c-11 50 -21 93 -21 95 0 3 49 5 109 4 l110 -1 -43 -45z
m-1135 -119 c-12 -22 -21 -44 -21 -48 1 -15 40 39 40 56 0 9 5 23 10 31 16 22
2 -36 -21 -87 -20 -49 -10 -56 30 -20 20 18 19 14 -7 -19 -46 -60 -57 -67 -72
-49 -7 8 -21 15 -31 15 -15 0 -13 9 18 80 20 44 38 78 40 76 3 -2 -3 -18 -12
-36 -9 -18 -14 -34 -11 -37 5 -5 15 14 41 82 4 11 9 15 12 8 2 -6 -5 -30 -16
-52z m1120 -23 c9 -3 9 -9 0 -25 -6 -12 -11 -31 -11 -42 0 -28 -20 -27 -21 2
-1 15 -4 10 -9 -13 l-7 -35 -2 33 c0 17 -5 32 -10 32 -6 0 -12 -15 -14 -32 -3
-25 -4 -20 -6 17 -1 45 -3 48 -16 32 -7 -11 -11 -26 -7 -35 5 -14 4 -15 -10
-2 -20 19 -13 40 29 90 l36 41 17 -29 c10 -17 24 -32 31 -34z m-1106 -388
c-48 -281 -85 -370 -150 -370 -27 0 -111 43 -154 79 l-34 28 50 64 c104 133
253 383 253 423 0 11 10 31 23 44 l22 24 3 -99 c2 -60 -3 -134 -13 -193z
m2178 182 c24 -55 60 -85 110 -91 34 -5 43 -10 45 -28 2 -14 -4 -27 -17 -35
-17 -10 -21 -23 -21 -65 l0 -53 -37 0 c-65 0 -85 10 -79 36 5 19 0 26 -24 39
-24 12 -30 22 -30 48 0 18 -5 38 -12 45 -10 10 -9 18 4 40 9 15 19 44 23 65 4
20 10 37 14 37 4 0 15 -17 24 -38z m-2809 -88 c22 -8 20 -21 -8 -55 -14 -16
-28 -49 -32 -74 -5 -38 -10 -45 -29 -45 -27 0 -65 43 -65 72 0 28 26 74 52 92
23 17 55 20 82 10z m194 -30 c29 -20 28 -33 -8 -82 -32 -45 -75 -72 -113 -72
-35 0 -54 -26 -38 -52 7 -11 10 -23 6 -26 -11 -12 -44 42 -54 87 -20 94 35
161 133 161 30 0 61 -6 74 -16z m73 -131 c8 -9 8 -17 1 -25 -5 -7 -13 -27 -16
-45 -5 -22 -16 -35 -36 -43 -22 -9 -30 -20 -32 -43 -2 -24 -9 -32 -32 -38 -19
-5 -39 -4 -55 4 -21 10 -27 20 -29 57 -2 24 -8 50 -14 57 -15 19 -2 30 43 36
45 6 86 38 122 97 l21 34 8 -39 c5 -21 13 -44 19 -52z m419 0 c-11 -61 -15
-68 -36 -69 -20 -2 -24 3 -23 25 2 33 16 91 18 71 1 -13 2 -13 11 0 8 12 10
12 10 -5 0 -30 20 3 20 34 0 13 3 22 6 18 3 -3 1 -36 -6 -74z m2195 -47 c28 1
61 3 75 5 22 4 29 -4 60 -66 33 -66 35 -74 35 -175 0 -117 -18 -182 -76 -271
l-31 -49 -87 1 c-149 2 -147 -3 -42 124 136 166 189 285 146 329 -44 43 -104
20 -180 -70 -27 -33 -67 -80 -88 -104 l-38 -45 7 45 c8 57 47 157 91 232 30
51 37 58 56 51 12 -4 45 -7 72 -7z m64 -110 c30 -36 -48 -186 -169 -326 -128
-148 -208 -209 -292 -225 -31 -6 -38 -4 -48 15 -22 41 -3 75 73 136 111 88
134 112 210 219 122 170 190 225 226 181z m-2279 -315 l0 -68 -40 -7 c-23 -3
-84 -20 -136 -37 -53 -17 -98 -29 -100 -27 -2 3 -1 34 3 70 l6 65 67 -5 c56
-4 76 -1 113 17 24 12 52 30 62 41 10 11 20 20 22 20 1 0 3 -31 3 -69z m255
-96 c114 -30 165 -91 165 -197 0 -120 -50 -239 -134 -316 -50 -46 -101 -57
-113 -25 -9 23 12 95 53 184 24 51 34 86 32 110 -5 51 -32 61 -153 56 -112 -5
-187 -30 -313 -105 -231 -138 -294 -222 -447 -597 -60 -148 -95 -205 -125
-205 -5 0 -22 11 -37 24 -26 22 -28 30 -27 93 1 99 25 194 129 513 51 157 96
299 99 315 l6 30 93 0 c83 0 106 5 237 49 251 84 406 104 535 71z m1436 -50
c31 -5 38 -10 43 -37 3 -17 13 -40 22 -49 15 -16 13 -18 -23 -28 -21 -6 -56
-10 -78 -10 -22 1 -31 3 -20 6 25 6 44 23 26 23 -7 0 -10 4 -7 9 3 5 -19 11
-50 13 -30 3 -60 10 -67 17 -9 9 -3 11 30 5 54 -8 136 3 130 19 -2 7 -17 16
-33 21 -16 5 -38 12 -49 17 -21 9 -11 9 76 -6z m-1461 -611 c0 -8 -9 -14 -20
-14 -22 0 -26 10 -8 28 13 13 28 7 28 -14z m83 -46 c49 -15 122 -79 150 -132
17 -32 22 -58 22 -118 0 -104 -6 -109 -92 -74 -37 15 -95 42 -128 59 l-60 32
-11 120 c-8 88 -8 122 0 128 12 8 59 2 119 -15z m-133 -87 c7 -55 10 -119 8
-143 -4 -34 -65 -263 -74 -276 -7 -10 -87 44 -118 79 -93 109 -85 259 21 361
35 34 113 77 139 78 7 0 16 -39 24 -99z m2313 -433 c-33 -32 -219 -49 -342
-30 l-45 7 41 27 c22 14 80 46 129 71 86 43 92 45 136 35 38 -9 51 -8 70 4 23
16 23 16 26 -40 2 -43 -1 -59 -15 -74z"/>
<path d="M1215 2526 c72 -69 135 -126 140 -126 9 0 237 232 232 236 -1 2 -115
5 -252 9 l-250 6 130 -125z"/>
<path d="M1086 2505 c3 -71 7 -184 10 -251 l6 -121 93 96 c51 53 103 108 114
122 l21 27 -124 128 -124 129 4 -130z"/>
<path d="M1487 2492 l-117 -117 120 -120 120 -120 0 238 c0 130 -1 237 -3 237
-1 0 -55 -53 -120 -118z"/>
<path d="M2500 2478 c-11 -24 -20 -51 -20 -60 0 -19 -81 -54 -105 -44 -14 5
-12 11 10 40 29 38 30 63 3 80 -24 15 -37 0 -46 -55 -6 -38 -12 -47 -45 -62
-21 -11 -44 -16 -53 -13 -12 5 -10 14 16 51 35 51 37 88 4 93 -28 4 -45 -19
-55 -76 -6 -33 -17 -54 -36 -69 -26 -21 -26 -23 -7 -23 11 0 24 3 28 8 7 7 70
12 171 12 28 0 64 5 82 11 20 6 44 7 65 1 23 -6 47 -5 75 3 23 7 45 10 48 7 3
-4 25 -7 48 -8 23 0 49 -4 57 -8 9 -3 24 1 35 9 19 15 18 16 -17 10 l-37 -6
20 46 c20 46 18 85 -5 85 -20 0 -36 -23 -36 -53 0 -39 -17 -67 -40 -67 -27 0
-25 12 5 40 27 26 33 61 12 78 -21 18 -57 -13 -57 -47 0 -39 -28 -69 -72 -77
-46 -8 -48 3 -8 41 17 16 30 37 30 46 0 63 -43 67 -70 7z m26 -36 c-19 -20
-21 -4 -3 35 12 27 12 27 15 4 2 -13 -3 -31 -12 -39z m137 28 c-6 -22 -23 -38
-23 -21 0 17 12 41 20 41 5 0 6 -9 3 -20z m-273 2 c0 -5 -7 -17 -16 -28 -14
-17 -15 -17 -10 -1 3 10 6 23 6 28 0 5 5 9 10 9 6 0 10 -4 10 -8z"/>
<path d="M1236 2238 c-58 -61 -106 -115 -106 -119 0 -4 80 -6 178 -3 97 2 199
4 227 4 l50 0 -115 115 c-63 63 -118 115 -121 115 -4 0 -55 -50 -113 -112z"/>
<path d="M2154 2215 c-8 -21 2 -45 19 -45 21 0 38 25 31 44 -8 20 -43 21 -50
1z"/>
<path d="M2388 2223 c-198 -5 -197 -23 0 -23 180 0 332 10 332 21 0 5 -42 8
-92 7 -51 -1 -159 -4 -240 -5z"/>
<path d="M2147 2096 c-4 -9 1 -22 9 -30 20 -20 46 -9 42 18 -4 25 -43 34 -51
12z"/>
<path d="M1770 2083 c-25 -2 -55 -6 -67 -8 l-23 -5 0 -271 0 -270 101 3 101 3
-1 265 c-1 172 -6 269 -13 277 -6 7 -20 12 -32 11 -11 -1 -41 -3 -66 -5z m88
-275 l-3 -253 -72 -3 -73 -3 -1 53 c0 29 -4 141 -8 248 -5 107 -6 198 -4 203
2 4 40 7 84 7 l79 0 -2 -252z"/>
<path d="M2380 2080 c-123 -4 -147 -7 -116 -14 49 -11 382 -1 416 13 28 11
-22 11 -300 1z"/>
<path d="M1404 1989 c-2 -4 -7 -104 -11 -221 -5 -180 -4 -215 9 -225 18 -15
117 -28 151 -19 l24 6 5 222 c3 123 3 229 0 236 -2 6 -16 11 -31 11 -17 -1
-20 -3 -8 -6 16 -4 17 -24 17 -229 0 -187 -2 -226 -14 -230 -8 -3 -39 -2 -68
3 l-53 8 -3 220 -2 220 52 -2 c63 -3 53 3 -15 10 -26 3 -50 1 -53 -4z"/>
<path d="M2639 1942 l-106 -3 -7 -52 c-3 -29 -6 -118 -6 -199 l0 -148 114 0
c86 0 116 3 125 14 8 10 14 79 18 199 7 215 22 193 -138 189z m116 -41 c6 -28
-13 -329 -21 -343 -9 -14 -174 -9 -179 5 -2 6 -5 92 -7 190 l-4 177 102 0 102
0 7 -29z"/>
<path d="M1977 1923 c-4 -3 -7 -91 -7 -194 0 -211 -6 -199 87 -199 76 0 73 -8
73 186 0 207 -3 214 -93 214 -30 0 -57 -3 -60 -7z m107 -19 c14 -5 16 -31 16
-185 l0 -179 -45 0 c-61 0 -65 13 -65 211 l0 159 39 0 c22 0 46 -3 55 -6z"/>
<path d="M2310 1791 l-75 -6 -3 -122 -3 -123 97 0 96 0 -7 123 c-7 122 -10
139 -23 135 -4 -1 -41 -4 -82 -7z m80 -126 l0 -115 -70 0 -70 0 0 115 0 115
70 0 70 0 0 -115z"/>
</g>
</svg>
