<?xml version="1.0" encoding="UTF-8" standalone="no" ?>
<!DOCTYPE svg PUBLIC "-//W3C//DTD SVG 1.1//EN" "http://www.w3.org/Graphics/SVG/1.1/DTD/svg11.dtd">
<svg xmlns="http://www.w3.org/2000/svg" xmlns:xlink="http://www.w3.org/1999/xlink" version="1.1" width="1080" height="1080" viewBox="0 0 1080 1080" xml:space="preserve">
<defs>
</defs>
<g transform="matrix(1 0 0 1 540 540)" id="de5ca4f7-c48b-4a70-ae6e-6402d5f09d8e"  >
<rect style="stroke: none; stroke-width: 1; stroke-dasharray: none; stroke-linecap: butt; stroke-dashoffset: 0; stroke-linejoin: miter; stroke-miterlimit: 4; fill: rgb(255,255,255); fill-rule: nonzero; opacity: 1; visibility: hidden;" vector-effect="non-scaling-stroke"  x="-540" y="-540" rx="0" ry="0" width="1080" height="1080" />
</g>
<g transform="matrix(Infinity NaN NaN Infinity 0 0)" id="9279debe-ce39-4886-92e6-8704df11ede8"  >
</g>
<g transform="matrix(1.43 0 0 1.43 540 540)"  >
<path style="stroke: #4683B5; stroke-width: 0.5; stroke-dasharray: none; stroke-linecap: round; stroke-dashoffset: 0; stroke-linejoin: miter; stroke-miterlimit: 4; fill: rgb(72,131,179); fill-rule: nonzero; opacity: 1;" vector-effect="non-scaling-stroke"  transform=" translate(-383.08, -375.79)" d="M 156 144 C 158.707 131.997 157 118.27 157 106 C 157 102.502 155.484 94.5937 158.609 92.1497 C 163.763 88.1184 179.616 91 186 91 L 260 91 L 378 91 C 444.781 91 505.498 93.5153 555.831 144.125 C 588.887 177.364 606.021 218.704 609.25 265 C 609.992 275.643 609.742 286.334 608.6 296.973 C 608.281 299.945 608.587 305.91 605.069 307.228 C 599.95 309.146 584.388 293.529 580.059 290.585 C 553.41 272.461 528.057 252.124 502 233.112 C 470.514 210.138 439.245 181.595 405 163 C 379.072 201.494 348.987 237.287 321.924 275 C 315.386 284.11 308.714 293.099 301.891 301.999 C 299.841 304.674 296.995 310.063 292.94 309.392 C 280.604 307.352 265.086 288.761 254.999 281.432 C 219.563 255.684 186.04 227.095 151.049 200.731 C 139.919 192.346 129.135 183.504 117.999 175.125 C 115.531 173.268 109.185 166.718 105.717 168.444 C 101.073 170.755 104 195.047 104 200 L 104 299 L 104 713 L 352 713 L 352 509 C 422.587 509 488.167 511.358 551 474.214 C 565.201 465.819 577.887 455.43 589.94 444.203 C 593.193 441.174 602.219 434.756 599.615 429.423 C 595.309 420.609 577.838 412.422 569.941 406.606 C 567.073 404.494 563.134 400.413 559.196 401.274 C 551.734 402.906 541.953 416.007 535.685 420.884 C 520.804 432.464 503.113 441.855 485.115 447.583 C 442.151 461.256 395.548 457 351 457 C 338.334 457 325.666 457.041 313 456.999 C 309.319 456.987 302.704 455.275 299.717 457.98 C 293.896 463.253 298 489.309 298 497 L 298 614 L 298 648 C 298 651.555 299.015 657.507 295.588 659.85 C 290.801 663.123 279.608 661 274 661 L 218 661 L 175 661 C 170.348 661 162.225 662.52 158.412 659.283 C 153.307 654.948 156 640.105 156 634 L 156 562 C 156 495.655 157 429.278 157 363 L 157 304 C 157 294.399 158.529 283.296 156 274 C 168.134 276.23 180.285 290.254 190.027 297.572 C 216.586 317.52 242.772 338.138 269 358.537 C 277.617 365.239 292.384 382.052 303.189 383.874 C 307.53 384.606 310.189 379.566 312.456 376.695 C 318.8 368.657 324.27 359.977 330.702 352 C 352.478 324.997 372.648 296.101 393.014 268 C 398.005 261.113 408.327 240.624 417.025 238.908 C 422.43 237.841 429.186 245.69 433.027 248.624 C 445.738 258.332 459.127 267.308 472 276.835 C 508.76 304.04 545.414 331.604 582.804 357.931 C 597.941 368.589 613.494 385.599 631 392 C 646.066 355.052 661.48 321.858 662.924 281.01 C 666.675 174.893 594.154 79.4158 493.983 48.3815 C 461.751 38.3955 428.41 39 395 39 L 282 39 L 155 39 L 121 39 C 116.967 39 110.101 37.7037 106.472 39.7173 C 102.071 42.1594 105 64.9343 105 70 C 105 79.6716 101.806 96.0283 105.455 104.941 C 107.939 111.009 116.607 115.51 121.804 119.003 C 133.186 126.656 142.874 139.3 156 144 z" stroke-linecap="round" />
</g>
</svg>